<svg xmlns="http://www.w3.org/2000/svg" xmlns:xlink="http://www.w3.org/1999/xlink" width="500" zoomAndPan="magnify" viewBox="0 0 375 374.999991" height="500" preserveAspectRatio="xMidYMid meet" version="1.0"><defs><clipPath id="b76af2af12"><path d="M 306 93 L 348.476562 93 L 348.476562 267 L 306 267 Z M 306 93 " clip-rule="nonzero"/></clipPath><clipPath id="34653c51a7"><path d="M 26.726562 67 L 168 67 L 168 291 L 26.726562 291 Z M 26.726562 67 " clip-rule="nonzero"/></clipPath><clipPath id="39c1e7046d"><path d="M 184 296 L 209 296 L 209 330.75 L 184 330.75 Z M 184 296 " clip-rule="nonzero"/></clipPath><clipPath id="1d78ce437c"><path d="M 87 289 L 188 289 L 188 330.75 L 87 330.75 Z M 87 289 " clip-rule="nonzero"/></clipPath></defs><path fill="#c99a5b" d="M 294.808594 280.503906 L 309.671875 262.1875 L 323.703125 309.8125 L 303.496094 310.648438 Z M 294.808594 280.503906 " fill-opacity="1" fill-rule="nonzero"/><path fill="#c99a5b" d="M 177.757812 299.464844 L 184.898438 326.78125 L 204.71875 326.269531 L 196.03125 298.5 Z M 177.757812 299.464844 " fill-opacity="1" fill-rule="nonzero"/><path fill="#c99a5b" d="M 309.996094 261.609375 C 309.996094 261.609375 289.210938 293.617188 260.316406 298.308594 L 301.4375 310.648438 L 324.988281 310.648438 Z M 309.996094 261.609375 " fill-opacity="1" fill-rule="nonzero"/><path fill="#000000" d="M 293.972656 281.660156 C 293.972656 281.660156 269.582031 297.152344 262.3125 297.792969 L 303.558594 310.84375 Z M 293.972656 281.660156 " fill-opacity="1" fill-rule="nonzero"/><path fill="#000000" d="M 205.492188 326.847656 L 183.675781 326.847656 C 183.675781 326.847656 172.542969 324.46875 150.859375 318.363281 C 129.171875 312.257812 91.65625 313.476562 91.65625 313.476562 L 99.121094 290.273438 L 99.121094 290.210938 C 114.242188 296.445312 149.183594 297.921875 172.738281 298.179688 C 175.117188 298.179688 177.371094 298.246094 179.429688 298.246094 L 187.023438 324.210938 L 200.988281 324.210938 L 192.042969 298.566406 L 193.265625 298.179688 C 195.066406 298.179688 196.03125 298.117188 196.03125 298.117188 Z M 205.492188 326.847656 " fill-opacity="1" fill-rule="nonzero"/><path fill="#c99a5b" d="M 143.328125 303.578125 C 141.527344 303.578125 139.789062 303.515625 137.988281 303.320312 L 137.859375 303.320312 C 126.210938 302.230469 115.015625 297.921875 104.589844 290.402344 L 104.011719 290.015625 L 103.304688 289.886719 C 100.535156 289.308594 98.285156 288.859375 96.675781 288.472656 L 96.933594 287.511719 L 92.941406 287.511719 C 80.78125 286.351562 69.070312 279.863281 59.09375 268.679688 C 58.257812 267.777344 57.484375 266.878906 56.714844 265.914062 L 55.941406 264.949219 C 55.878906 264.820312 55.75 264.757812 55.683594 264.628906 L 55.621094 264.5 C 55.296875 264.113281 55.039062 263.730469 54.71875 263.34375 C 54.71875 263.34375 54.074219 262.507812 53.945312 262.316406 C 52.53125 260.324219 51.050781 258.203125 49.699219 256.015625 C 36.957031 235.511719 29.945312 208.195312 29.945312 179.078125 C 29.945312 150.027344 36.957031 122.710938 49.699219 102.144531 C 61.28125 83.4375 76.597656 72.320312 92.878906 70.710938 L 97.125 70.710938 L 96.738281 69.554688 C 99.378906 68.785156 102.082031 68.078125 104.65625 67.371094 L 107.484375 67.371094 L 107.484375 65.890625 C 115.144531 60.816406 123.316406 57.472656 131.679688 55.800781 L 131.875 55.800781 C 135.671875 55.09375 139.53125 54.707031 143.394531 54.707031 C 150.601562 54.707031 157.742188 55.992188 164.628906 58.5 L 165.207031 58.695312 L 165.785156 58.695312 C 168.167969 58.628906 170.613281 58.566406 173.058594 58.566406 C 191.71875 58.566406 210.445312 60.558594 228.722656 64.476562 L 229.042969 64.542969 L 229.945312 64.542969 L 230.523438 64.347656 C 237.085938 61.84375 243.84375 60.621094 250.664062 60.621094 C 272.09375 60.621094 292.300781 72.832031 307.484375 95.074219 L 307.484375 95.78125 L 308.320312 96.359375 L 308.902344 97.257812 L 309.671875 97.257812 C 319.324219 103.878906 327.691406 114.164062 333.867188 127.082031 C 341.332031 142.570312 345.257812 160.890625 345.257812 180.042969 C 345.257812 182.742188 345.195312 185.507812 345 188.269531 C 343.394531 214.878906 334.0625 239.046875 319.324219 254.539062 L 319.199219 254.667969 C 316.429688 257.558594 313.535156 260.128906 310.445312 262.316406 L 310.382812 262.121094 L 307.292969 264.4375 C 306.972656 264.691406 306.714844 264.886719 306.390625 265.078125 L 306.132812 265.269531 L 305.039062 266.042969 L 305.039062 266.683594 C 290.175781 286.738281 270.871094 297.792969 250.664062 297.792969 C 244.164062 297.792969 237.664062 296.636719 231.359375 294.386719 L 230.585938 294.128906 L 229.75 294.257812 C 214.949219 296.636719 198.863281 297.792969 182.003906 297.792969 C 178.269531 297.792969 174.539062 297.730469 171 297.601562 L 170.226562 297.601562 L 169.519531 297.921875 C 166.496094 299.335938 163.40625 300.492188 160.316406 301.328125 L 159.996094 301.394531 C 154.527344 302.808594 148.925781 303.578125 143.328125 303.578125 Z M 143.328125 303.578125 " fill-opacity="1" fill-rule="nonzero"/><g clip-path="url(#b76af2af12)"><path fill="#000000" d="M 348.476562 180.042969 C 348.476562 182.871094 348.414062 185.699219 348.21875 188.464844 C 346.609375 215.78125 336.894531 240.71875 321.644531 256.722656 C 321.644531 256.789062 321.578125 256.789062 321.515625 256.851562 C 317.652344 260.902344 313.535156 264.308594 309.222656 266.941406 L 309.03125 266.621094 L 306.648438 262.828125 C 309.867188 260.835938 313.019531 258.394531 315.980469 255.5 C 316.6875 254.792969 317.394531 254.085938 318.101562 253.378906 C 318.101562 253.316406 318.167969 253.316406 318.167969 253.253906 C 319.90625 251.386719 321.644531 249.394531 323.25 247.273438 C 324.859375 245.152344 326.40625 242.902344 327.820312 240.589844 C 336.25 226.835938 341.65625 209.480469 343.136719 190.714844 C 343.199219 189.878906 343.265625 188.976562 343.328125 188.140625 C 343.394531 187.371094 343.394531 186.597656 343.457031 185.828125 C 343.523438 183.898438 343.585938 181.972656 343.585938 180.042969 C 343.585938 161.46875 339.855469 143.730469 332.710938 128.625 C 332.582031 128.367188 332.453125 128.109375 332.324219 127.851562 C 331.359375 125.796875 330.328125 123.867188 329.234375 121.941406 C 325.953125 116.15625 322.15625 111.011719 318.039062 106.707031 C 314.757812 103.234375 311.21875 100.277344 307.550781 97.902344 L 310.253906 93.789062 C 310.382812 93.851562 310.511719 93.980469 310.640625 94.042969 C 321.128906 100.984375 330.136719 111.914062 336.765625 125.730469 C 344.421875 141.609375 348.476562 160.441406 348.476562 180.042969 Z M 348.476562 180.042969 " fill-opacity="1" fill-rule="nonzero"/></g><path fill="#000000" d="M 274.023438 75.019531 L 272.15625 79.519531 C 272.027344 79.453125 271.898438 79.453125 271.835938 79.390625 C 259.609375 74.441406 246.867188 70.328125 233.804688 67.242188 C 232.261719 66.855469 230.652344 66.535156 229.042969 66.148438 C 227.949219 65.890625 226.789062 65.699219 225.695312 65.441406 C 209.351562 62.101562 192.75 60.300781 176.148438 60.109375 C 172.542969 60.042969 168.875 60.109375 165.273438 60.171875 L 165.207031 60.171875 L 165.207031 57.664062 L 165.144531 55.285156 C 165.335938 55.285156 165.464844 55.285156 165.660156 55.285156 C 187.023438 54.707031 208.449219 56.699219 229.363281 61.199219 C 229.621094 61.265625 229.816406 61.328125 230.074219 61.328125 C 231.550781 61.648438 233.03125 61.972656 234.449219 62.292969 C 234.578125 62.292969 234.769531 62.355469 234.898438 62.421875 C 236.25 62.742188 237.539062 63.0625 238.886719 63.386719 C 250.730469 66.40625 262.3125 70.199219 273.507812 74.699219 C 273.636719 74.890625 273.832031 74.953125 274.023438 75.019531 Z M 274.023438 75.019531 " fill-opacity="1" fill-rule="nonzero"/><path fill="#000000" d="M 136.957031 62.613281 C 136.828125 62.613281 136.765625 62.613281 136.636719 62.679688 C 126.855469 64.027344 117.007812 65.957031 107.292969 68.398438 C 107.292969 68.398438 107.226562 68.398438 107.226562 68.398438 C 107.164062 68.398438 107.101562 68.398438 107.035156 68.464844 L 106.84375 68.527344 C 106.714844 68.589844 106.519531 68.589844 106.390625 68.65625 C 106.261719 68.65625 106.132812 68.71875 106.003906 68.785156 C 104.332031 69.234375 102.59375 69.683594 100.921875 70.132812 C 100.859375 70.132812 100.792969 70.199219 100.730469 70.199219 C 98.542969 70.777344 96.417969 71.417969 94.230469 72.0625 L 92.8125 67.5 L 92.8125 67.371094 C 96.675781 66.214844 100.535156 65.121094 104.332031 64.09375 C 104.460938 64.027344 104.589844 64.027344 104.78125 63.964844 C 105.039062 63.898438 105.296875 63.835938 105.554688 63.769531 C 105.621094 63.769531 105.621094 63.769531 105.683594 63.769531 L 105.878906 63.707031 C 111.476562 62.292969 117.203125 61.007812 122.867188 59.980469 C 127.371094 59.144531 131.9375 58.371094 136.441406 57.792969 Z M 136.957031 62.613281 " fill-opacity="1" fill-rule="nonzero"/><g clip-path="url(#34653c51a7)"><path fill="#000000" d="M 158.964844 125.796875 C 158.902344 125.539062 158.773438 125.28125 158.707031 124.960938 C 158.644531 124.765625 158.578125 124.640625 158.515625 124.445312 C 158.257812 123.675781 157.9375 122.902344 157.679688 122.132812 C 157.421875 121.425781 157.164062 120.652344 156.84375 119.945312 C 156.585938 119.238281 156.261719 118.53125 156.003906 117.824219 C 156.003906 117.761719 156.003906 117.761719 155.941406 117.699219 C 155.878906 117.570312 155.878906 117.441406 155.8125 117.375 C 155.554688 116.734375 155.234375 116.027344 154.976562 115.382812 C 152.660156 110.113281 150.085938 105.097656 147.191406 100.472656 C 145.066406 97.066406 142.8125 93.851562 140.433594 90.894531 C 139.53125 89.738281 138.566406 88.644531 137.601562 87.550781 C 136.316406 86.074219 134.964844 84.660156 133.546875 83.375 C 132.839844 82.667969 132.132812 82.023438 131.425781 81.382812 C 130.714844 80.738281 130.007812 80.160156 129.300781 79.582031 C 128.464844 78.941406 127.628906 78.296875 126.789062 77.65625 C 126.597656 77.527344 126.46875 77.398438 126.277344 77.269531 C 125.566406 76.753906 124.859375 76.242188 124.152344 75.789062 C 118.746094 72.191406 113.085938 69.75 107.164062 68.398438 C 107.035156 68.398438 106.90625 68.335938 106.777344 68.335938 C 104.527344 67.820312 102.210938 67.5 99.890625 67.371094 C 99.828125 67.371094 99.765625 67.371094 99.765625 67.371094 C 98.863281 67.304688 98.027344 67.304688 97.125 67.304688 C 95.644531 67.304688 94.230469 67.371094 92.75 67.5 C 75.375 69.171875 59.289062 80.738281 46.996094 100.472656 C 33.933594 121.554688 26.726562 149.449219 26.726562 179.078125 C 26.726562 208.710938 33.933594 236.667969 46.996094 257.6875 C 48.414062 260 49.894531 262.1875 51.4375 264.242188 C 51.695312 264.5625 51.953125 264.886719 52.210938 265.269531 C 52.53125 265.65625 52.851562 266.105469 53.175781 266.492188 C 53.304688 266.683594 53.433594 266.8125 53.5625 267.007812 C 53.753906 267.199219 53.882812 267.390625 54.074219 267.648438 C 54.976562 268.742188 55.878906 269.835938 56.777344 270.863281 C 67.332031 282.691406 79.75 289.566406 92.878906 290.789062 C 94.292969 290.917969 95.710938 290.980469 97.125 290.980469 C 98.027344 290.980469 98.863281 290.980469 99.765625 290.917969 C 99.828125 290.917969 99.890625 290.917969 99.890625 290.917969 C 102.210938 290.789062 104.527344 290.46875 106.777344 289.953125 C 106.90625 289.953125 107.101562 289.886719 107.226562 289.824219 C 107.9375 289.695312 108.578125 289.503906 109.289062 289.308594 C 115.914062 287.511719 122.285156 284.167969 128.269531 279.476562 C 128.914062 278.960938 129.621094 278.382812 130.265625 277.871094 C 130.652344 277.546875 131.039062 277.164062 131.488281 276.839844 C 131.875 276.457031 132.324219 276.070312 132.710938 275.75 C 133.289062 275.167969 133.933594 274.589844 134.511719 274.011719 C 135.09375 273.433594 135.734375 272.792969 136.316406 272.148438 C 140.175781 268.035156 143.84375 263.214844 147.191406 257.816406 C 147.703125 256.980469 148.21875 256.082031 148.734375 255.179688 C 149.25 254.28125 149.765625 253.316406 150.34375 252.351562 C 150.921875 251.324219 151.4375 250.296875 151.953125 249.265625 C 152.210938 248.753906 152.464844 248.238281 152.722656 247.789062 C 160.511719 231.914062 165.335938 213.144531 166.882812 193.15625 C 166.882812 192.898438 166.945312 192.578125 166.945312 192.253906 C 167.007812 191.742188 167.007812 191.292969 167.074219 190.777344 C 167.203125 189.171875 167.265625 187.5 167.332031 185.890625 C 167.332031 185.378906 167.332031 184.929688 167.394531 184.414062 C 167.394531 184.15625 167.394531 183.835938 167.394531 183.578125 C 167.460938 182.101562 167.460938 180.6875 167.460938 179.207031 C 167.394531 160.183594 164.5 141.992188 158.964844 125.796875 Z M 97.0625 286.03125 C 84.898438 286.03125 73.574219 280.632812 63.792969 271.183594 C 62.503906 269.964844 61.28125 268.679688 60.058594 267.328125 C 59.867188 267.070312 59.609375 266.8125 59.417969 266.558594 C 58.902344 265.976562 58.386719 265.335938 57.871094 264.757812 C 57.742188 264.628906 57.679688 264.5 57.550781 264.371094 C 57.226562 263.921875 56.84375 263.535156 56.519531 263.085938 C 56.070312 262.507812 55.683594 261.992188 55.234375 261.414062 C 54.65625 260.644531 54.074219 259.808594 53.496094 258.972656 C 40.113281 239.304688 31.617188 210.832031 31.617188 179.078125 C 31.617188 120.140625 60.960938 72.191406 97.0625 72.191406 C 133.160156 72.191406 162.503906 120.140625 162.503906 179.078125 C 162.503906 238.019531 133.160156 286.03125 97.0625 286.03125 Z M 97.0625 286.03125 " fill-opacity="1" fill-rule="nonzero"/></g><path fill="#000000" d="M 146.222656 120.910156 C 144.875 117.632812 143.328125 114.484375 141.71875 111.460938 C 140.691406 109.535156 139.597656 107.671875 138.4375 105.804688 C 135.414062 100.984375 132.195312 96.742188 128.785156 93.082031 C 127.242188 91.410156 125.695312 89.929688 124.089844 88.515625 C 119.839844 84.851562 115.335938 82.023438 110.769531 80.160156 C 109.160156 79.519531 107.550781 79.003906 105.941406 78.554688 C 104.140625 78.105469 102.335938 77.78125 100.472656 77.589844 L 100.40625 77.589844 C 99.25 77.460938 98.15625 77.398438 96.996094 77.398438 C 94.230469 77.398438 91.460938 77.71875 88.761719 78.363281 C 88.308594 78.488281 87.792969 78.617188 87.34375 78.746094 C 82.519531 80.097656 77.820312 82.476562 73.316406 85.816406 C 71.578125 87.101562 69.90625 88.515625 68.230469 90.058594 C 63.726562 94.300781 59.480469 99.570312 55.621094 105.742188 C 43.523438 125.21875 36.894531 151.183594 36.894531 179.015625 C 36.894531 206.78125 43.523438 232.8125 55.621094 252.289062 C 55.878906 252.738281 56.132812 253.125 56.390625 253.574219 C 56.972656 254.472656 57.550781 255.308594 58.128906 256.144531 C 58.449219 256.59375 58.773438 257.109375 59.160156 257.558594 C 59.546875 258.136719 59.929688 258.652344 60.382812 259.164062 C 60.511719 259.292969 60.640625 259.488281 60.703125 259.617188 C 61.023438 260.066406 61.347656 260.449219 61.734375 260.902344 C 61.796875 260.964844 61.863281 261.09375 61.925781 261.15625 C 62.183594 261.480469 62.441406 261.738281 62.699219 262.058594 C 63.148438 262.570312 63.597656 263.085938 64.050781 263.601562 C 64.179688 263.792969 64.308594 263.921875 64.5 264.113281 C 64.820312 264.4375 65.078125 264.757812 65.402344 265.078125 C 65.785156 265.527344 66.171875 265.914062 66.625 266.300781 C 66.625 266.300781 66.6875 266.363281 66.6875 266.363281 C 67.136719 266.878906 67.652344 267.328125 68.167969 267.777344 C 68.296875 267.90625 68.425781 268.035156 68.554688 268.164062 C 71.773438 271.183594 75.183594 273.628906 78.65625 275.554688 C 80.265625 276.457031 81.808594 277.226562 83.417969 277.871094 C 87.859375 279.667969 92.429688 280.570312 97.0625 280.570312 C 103.496094 280.570312 109.867188 278.769531 115.851562 275.363281 C 117.589844 274.398438 119.261719 273.304688 120.871094 272.085938 C 126.019531 268.292969 130.84375 263.214844 135.285156 257.042969 C 136.378906 255.5 137.472656 253.894531 138.503906 252.222656 C 139.210938 251.066406 139.917969 249.910156 140.5625 248.753906 C 151.308594 229.726562 157.226562 205.109375 157.226562 178.949219 C 157.226562 157.996094 153.367188 137.878906 146.222656 120.910156 Z M 135.734375 247.46875 C 135.285156 248.238281 134.835938 249.011719 134.320312 249.78125 C 133.097656 251.773438 131.808594 253.636719 130.523438 255.375 C 129.558594 256.722656 128.527344 258.007812 127.5 259.164062 C 125.441406 261.609375 123.316406 263.792969 121.128906 265.722656 C 119.453125 267.199219 117.78125 268.484375 116.042969 269.640625 C 111.539062 272.664062 106.84375 274.589844 102.082031 275.425781 C 101.566406 275.492188 100.988281 275.621094 100.472656 275.621094 C 99.378906 275.75 98.285156 275.8125 97.191406 275.8125 L 96.996094 275.8125 C 95.902344 275.8125 94.808594 275.75 93.714844 275.621094 C 93.070312 275.554688 92.492188 275.492188 91.847656 275.363281 C 91.078125 275.234375 90.304688 275.105469 89.597656 274.914062 C 87.601562 274.398438 85.605469 273.691406 83.675781 272.792969 C 83.226562 272.597656 82.710938 272.339844 82.195312 272.085938 C 81.101562 271.507812 80.007812 270.925781 78.914062 270.21875 C 76.277344 268.550781 73.765625 266.558594 71.320312 264.242188 C 70.742188 263.664062 70.164062 263.085938 69.582031 262.507812 C 69.132812 262.058594 68.683594 261.542969 68.230469 261.09375 C 68.105469 260.964844 67.910156 260.773438 67.78125 260.578125 C 67.074219 259.808594 66.429688 259.035156 65.722656 258.203125 C 65.335938 257.75 65.015625 257.300781 64.628906 256.851562 C 64.179688 256.273438 63.726562 255.695312 63.277344 255.050781 C 62.890625 254.539062 62.503906 253.960938 62.117188 253.378906 C 61.796875 252.929688 61.476562 252.480469 61.21875 252.03125 C 61.21875 251.964844 61.152344 251.902344 61.089844 251.902344 C 60.640625 251.257812 60.253906 250.550781 59.800781 249.910156 C 59.738281 249.78125 59.671875 249.652344 59.546875 249.523438 C 48.089844 230.757812 41.785156 205.816406 41.785156 179.078125 C 41.785156 152.210938 48.15625 127.082031 59.800781 108.378906 C 62.375 104.265625 65.078125 100.601562 67.910156 97.386719 C 69.582031 95.523438 71.257812 93.851562 73.058594 92.308594 C 75.183594 90.507812 77.304688 88.902344 79.492188 87.550781 C 79.492188 87.550781 79.558594 87.550781 79.558594 87.488281 C 80.394531 86.972656 81.296875 86.460938 82.195312 86.011719 C 83.804688 85.175781 85.476562 84.46875 87.152344 83.890625 C 88.761719 83.3125 90.433594 82.925781 92.105469 82.667969 C 93.777344 82.410156 95.386719 82.28125 97.0625 82.28125 C 98.21875 82.28125 99.378906 82.347656 100.535156 82.476562 C 102.273438 82.667969 104.011719 83.054688 105.75 83.566406 C 107.164062 83.953125 108.515625 84.46875 109.867188 85.109375 C 110.058594 85.175781 110.316406 85.304688 110.511719 85.367188 C 112.699219 86.332031 114.820312 87.617188 116.882812 89.09375 C 118.167969 89.996094 119.390625 90.960938 120.613281 91.988281 C 121.707031 92.886719 122.738281 93.914062 123.765625 94.945312 C 125.375 96.550781 126.917969 98.285156 128.464844 100.152344 C 130.457031 102.65625 132.390625 105.421875 134.253906 108.378906 C 136.828125 112.554688 139.144531 116.992188 141.207031 121.746094 C 142.8125 125.539062 144.292969 129.460938 145.582031 133.507812 C 146.675781 137.042969 147.640625 140.644531 148.476562 144.371094 C 149.378906 148.226562 150.085938 152.210938 150.664062 156.261719 C 151.695312 163.589844 152.210938 171.238281 152.210938 179.015625 C 152.210938 200.097656 148.285156 220.085938 140.949219 236.796875 C 139.46875 240.589844 137.664062 244.125 135.734375 247.46875 Z M 135.734375 247.46875 " fill-opacity="1" fill-rule="nonzero"/><path fill="#000000" d="M 100.535156 280.570312 L 100.214844 280.570312 C 87.730469 279.027344 75.761719 269 66.558594 252.289062 C 55.878906 232.878906 49.957031 206.910156 49.957031 179.144531 C 49.957031 151.378906 55.8125 125.410156 66.558594 106 C 75.761719 89.289062 87.730469 79.261719 100.214844 77.71875 L 100.535156 77.71875 L 100.535156 80.160156 L 100.859375 82.539062 C 89.984375 83.890625 79.363281 93.015625 70.933594 108.3125 C 60.640625 127.015625 54.976562 152.148438 54.976562 179.078125 C 54.976562 206.011719 60.640625 231.140625 70.933594 249.84375 C 79.363281 265.144531 89.984375 274.335938 100.859375 275.621094 L 100.535156 277.996094 Z M 100.535156 280.570312 " fill-opacity="1" fill-rule="nonzero"/><path fill="#000000" d="M 313.984375 179.078125 C 313.984375 180.558594 313.984375 181.972656 313.921875 183.449219 C 313.855469 186.664062 313.726562 189.878906 313.46875 193.027344 C 312.054688 211.921875 307.808594 229.984375 300.921875 245.730469 C 300.277344 247.273438 299.570312 248.816406 298.796875 250.296875 C 297.640625 252.738281 296.351562 255.179688 295.066406 257.429688 C 287.410156 270.992188 277.820312 281.53125 267.007812 288.21875 C 260.316406 292.332031 253.304688 294.902344 246.097656 295.738281 C 244.164062 295.996094 242.234375 296.125 240.304688 296.125 C 239.273438 296.125 238.246094 296.058594 237.214844 295.996094 C 237.085938 295.996094 237.023438 295.996094 236.894531 295.996094 L 237.023438 294.257812 L 237.214844 291.175781 C 238.246094 291.238281 239.273438 291.300781 240.238281 291.300781 C 248.027344 291.300781 255.683594 289.179688 262.957031 285.003906 C 263.40625 284.746094 263.921875 284.425781 264.371094 284.167969 C 264.433594 284.105469 264.5 284.039062 264.628906 284.039062 C 267.71875 282.113281 270.675781 279.863281 273.574219 277.289062 C 279.105469 272.277344 284.125 266.105469 288.632812 258.84375 C 289.46875 257.429688 290.304688 256.015625 291.140625 254.601562 C 291.71875 253.574219 292.300781 252.546875 292.8125 251.453125 C 293.199219 250.746094 293.585938 249.972656 293.972656 249.203125 C 294.808594 247.53125 295.582031 245.730469 296.417969 243.996094 C 303.046875 228.828125 307.164062 211.472656 308.515625 193.21875 C 308.578125 192.449219 308.644531 191.675781 308.707031 190.839844 C 308.835938 189.234375 308.902344 187.5625 308.964844 185.957031 C 308.964844 185.183594 309.03125 184.414062 309.03125 183.578125 C 309.09375 182.101562 309.09375 180.6875 309.09375 179.207031 C 309.09375 157.933594 305.425781 137.6875 298.863281 120.332031 C 298.734375 120.011719 298.605469 119.625 298.476562 119.304688 C 298.347656 118.917969 298.15625 118.46875 297.960938 118.082031 C 297.640625 117.3125 297.316406 116.476562 296.996094 115.703125 C 296.996094 115.640625 296.933594 115.578125 296.933594 115.511719 C 296.546875 114.546875 296.09375 113.582031 295.644531 112.621094 C 289.46875 99.058594 281.425781 87.679688 271.769531 79.582031 C 271.707031 79.519531 271.578125 79.453125 271.515625 79.324219 C 266.238281 74.890625 260.703125 71.675781 254.976562 69.621094 C 250.277344 67.949219 245.453125 67.113281 240.496094 67.050781 L 240.367188 67.050781 C 238.4375 67.050781 236.507812 67.175781 234.640625 67.433594 L 234.511719 66.34375 L 234.320312 64.863281 L 233.996094 62.613281 C 234.125 62.613281 234.320312 62.550781 234.449219 62.550781 C 236.378906 62.292969 238.375 62.164062 240.367188 62.164062 C 242.300781 62.164062 244.230469 62.292969 246.160156 62.550781 C 256.132812 63.769531 265.914062 68.207031 274.667969 75.597656 C 286.378906 85.367188 295.902344 99.636719 302.722656 116.734375 C 302.789062 116.863281 302.789062 116.925781 302.851562 117.054688 C 303.304688 118.210938 303.753906 119.433594 304.203125 120.589844 C 304.332031 120.910156 304.460938 121.234375 304.527344 121.554688 C 310.574219 138.652344 313.984375 158.449219 313.984375 179.078125 Z M 313.984375 179.078125 " fill-opacity="1" fill-rule="nonzero"/><path fill="#000000" d="M 334.449219 179.078125 C 334.449219 180.558594 334.449219 181.972656 334.382812 183.449219 C 334.382812 184.222656 334.320312 184.992188 334.320312 185.828125 C 334.253906 187.433594 334.191406 189.105469 334.0625 190.714844 C 333.996094 191.484375 333.933594 192.253906 333.867188 193.089844 C 332.519531 210.765625 328.527344 227.542969 322.285156 242.453125 C 321.769531 243.675781 321.257812 244.832031 320.742188 245.988281 C 320.355469 246.761719 320.035156 247.597656 319.648438 248.367188 C 319.132812 249.460938 318.617188 250.488281 318.039062 251.582031 C 317.460938 252.738281 316.816406 253.894531 316.171875 255.050781 C 316.109375 255.179688 316.042969 255.375 315.914062 255.5 C 313.792969 259.359375 311.410156 263.085938 308.964844 266.558594 C 308.773438 266.8125 308.578125 267.070312 308.386719 267.328125 C 308.320312 267.457031 308.257812 267.519531 308.128906 267.648438 C 292.554688 289.054688 272.09375 300.878906 250.535156 300.878906 C 243.652344 300.878906 236.765625 299.660156 230.136719 297.28125 C 229.945312 297.214844 229.75 297.152344 229.558594 297.085938 L 231.296875 292.523438 C 233.226562 293.230469 235.09375 293.808594 237.023438 294.324219 C 238.503906 294.710938 239.984375 295.03125 241.460938 295.289062 C 243.007812 295.542969 244.550781 295.738281 246.097656 295.867188 C 247.574219 295.996094 249.054688 296.058594 250.535156 296.058594 C 270.613281 296.058594 289.726562 284.875 304.398438 264.5 C 306.90625 261.09375 309.160156 257.429688 311.28125 253.636719 C 312.441406 251.644531 313.46875 249.523438 314.5 247.402344 C 322.285156 231.398438 327.242188 212.695312 328.851562 193.089844 C 329.105469 189.941406 329.300781 186.726562 329.363281 183.515625 C 329.363281 182.035156 329.429688 180.621094 329.429688 179.144531 C 329.429688 159.988281 326.277344 141.863281 320.742188 125.925781 C 320.613281 125.601562 320.546875 125.28125 320.421875 124.960938 C 320.035156 123.804688 319.582031 122.582031 319.132812 121.425781 C 319.070312 121.234375 318.941406 120.976562 318.875 120.78125 C 305.234375 85.816406 279.6875 62.292969 250.535156 62.292969 C 249.054688 62.292969 247.574219 62.355469 246.097656 62.484375 C 243.652344 62.679688 241.207031 63.0625 238.824219 63.578125 C 237.28125 63.898438 235.734375 64.347656 234.253906 64.800781 C 233.160156 65.121094 232.003906 65.507812 230.910156 65.957031 C 230.714844 66.019531 230.585938 66.085938 230.394531 66.148438 L 230.265625 65.890625 L 228.59375 61.585938 C 228.785156 61.523438 229.042969 61.394531 229.300781 61.328125 C 236.1875 58.695312 243.394531 57.40625 250.601562 57.40625 C 273.1875 57.40625 294.359375 70.199219 310.1875 93.402344 C 310.316406 93.59375 310.511719 93.851562 310.640625 94.042969 C 313.339844 98.03125 315.785156 102.273438 318.039062 106.640625 C 320.226562 110.882812 322.222656 115.382812 323.960938 119.945312 C 324.28125 120.78125 324.601562 121.617188 324.925781 122.453125 C 325.054688 122.710938 325.117188 122.96875 325.246094 123.289062 C 325.566406 124.125 325.824219 125.023438 326.148438 125.859375 C 326.210938 126.117188 326.339844 126.4375 326.40625 126.695312 C 326.535156 127.015625 326.597656 127.339844 326.726562 127.722656 C 331.746094 143.664062 334.449219 161.082031 334.449219 179.078125 Z M 334.449219 179.078125 " fill-opacity="1" fill-rule="nonzero"/><path fill="#000000" d="M 206.777344 179.078125 C 206.777344 180.558594 206.777344 181.972656 206.714844 183.449219 C 206.648438 186.664062 206.519531 189.878906 206.261719 193.027344 C 204.65625 215.523438 199.183594 236.667969 190.433594 254.410156 C 189.402344 256.53125 188.246094 258.652344 187.085938 260.644531 C 186.316406 262.058594 185.476562 263.40625 184.640625 264.757812 C 181.101562 270.476562 177.242188 275.554688 173.1875 279.925781 C 172.738281 280.375 172.351562 280.824219 171.898438 281.277344 C 170.421875 282.820312 168.941406 284.230469 167.460938 285.582031 C 167.332031 285.710938 167.203125 285.773438 167.074219 285.902344 C 156.457031 295.160156 144.550781 300.300781 132.132812 300.816406 C 131.488281 300.816406 130.84375 300.878906 130.203125 300.878906 C 120.804688 300.878906 111.734375 298.246094 103.109375 293.101562 C 102.402344 292.652344 101.695312 292.265625 100.988281 291.753906 C 100.535156 291.429688 100.085938 291.175781 99.636719 290.851562 C 99.378906 290.660156 99.121094 290.53125 98.925781 290.339844 L 100.859375 287.640625 L 101.757812 286.351562 C 101.824219 286.417969 101.953125 286.480469 102.015625 286.546875 C 102.59375 286.933594 103.175781 287.382812 103.753906 287.765625 C 104.140625 288.023438 104.527344 288.28125 104.910156 288.472656 C 105.621094 288.925781 106.390625 289.375 107.164062 289.761719 C 114.5625 293.875 122.285156 295.996094 130.203125 295.996094 C 134.707031 295.996094 139.082031 295.289062 143.328125 294.003906 C 148.667969 292.394531 153.753906 289.824219 158.578125 286.351562 C 159.222656 285.902344 159.867188 285.453125 160.511719 284.9375 C 160.703125 284.8125 160.832031 284.683594 161.023438 284.554688 C 161.992188 283.847656 162.890625 283.074219 163.792969 282.238281 C 164.5 281.660156 165.144531 281.019531 165.851562 280.375 C 166.300781 279.925781 166.816406 279.476562 167.265625 279.027344 C 172.609375 273.753906 177.5 267.328125 181.808594 260.066406 C 182.582031 258.78125 183.355469 257.429688 184.0625 256.015625 C 184.449219 255.308594 184.835938 254.601562 185.15625 253.894531 C 185.605469 253.058594 185.992188 252.222656 186.441406 251.324219 C 194.421875 234.871094 199.699219 214.878906 201.308594 193.027344 C 201.371094 192.253906 201.4375 191.484375 201.5 190.648438 C 201.628906 189.042969 201.695312 187.371094 201.757812 185.765625 C 201.757812 184.992188 201.824219 184.222656 201.824219 183.386719 C 201.886719 181.90625 201.886719 180.492188 201.886719 179.015625 C 201.886719 157.417969 198.285156 137.109375 191.976562 119.691406 C 191.914062 119.496094 191.847656 119.304688 191.785156 119.113281 C 191.207031 117.503906 190.5625 115.898438 189.917969 114.289062 C 189.660156 113.648438 189.339844 112.941406 189.082031 112.296875 C 188.886719 111.785156 188.632812 111.335938 188.4375 110.820312 C 188.246094 110.433594 188.050781 109.984375 187.921875 109.597656 C 181.9375 96.421875 174.34375 85.367188 165.59375 77.269531 C 164.820312 76.5625 164.050781 75.855469 163.277344 75.210938 C 162.570312 74.632812 161.863281 73.992188 161.152344 73.476562 C 160.125 72.707031 159.09375 71.933594 158.066406 71.226562 C 157.742188 70.96875 157.421875 70.777344 157.035156 70.585938 C 156.457031 70.199219 155.878906 69.8125 155.296875 69.492188 C 149.441406 65.890625 143.136719 63.578125 136.699219 62.613281 C 134.578125 62.292969 132.453125 62.164062 130.332031 62.164062 C 122.414062 62.164062 114.691406 64.222656 107.355469 68.335938 C 107.355469 68.335938 107.292969 68.335938 107.292969 68.335938 C 106.132812 68.976562 105.039062 69.621094 103.945312 70.390625 C 103.367188 70.777344 102.789062 71.164062 102.210938 71.613281 C 102.144531 71.675781 102.015625 71.742188 101.953125 71.804688 L 100.730469 70.132812 L 99.121094 67.820312 C 99.378906 67.628906 99.636719 67.5 99.828125 67.304688 C 100.277344 66.984375 100.730469 66.664062 101.179688 66.40625 C 102.59375 65.441406 104.074219 64.605469 105.554688 63.769531 C 113.535156 59.464844 121.835938 57.28125 130.394531 57.28125 C 131.039062 57.28125 131.679688 57.28125 132.324219 57.34375 C 143.523438 57.792969 154.269531 61.972656 164.050781 69.554688 C 164.371094 69.8125 164.691406 70.070312 165.015625 70.328125 C 166.625 71.613281 168.167969 72.960938 169.710938 74.441406 C 170.421875 75.148438 171.128906 75.855469 171.835938 76.5625 C 176.46875 81.316406 180.84375 86.972656 184.835938 93.402344 C 188.117188 98.671875 191.011719 104.328125 193.585938 110.304688 C 193.777344 110.820312 193.972656 111.269531 194.230469 111.785156 C 195.128906 113.96875 196.03125 116.21875 196.804688 118.46875 C 196.933594 118.726562 196.996094 118.984375 197.0625 119.175781 C 203.367188 137.300781 206.777344 157.804688 206.777344 179.078125 Z M 206.777344 179.078125 " fill-opacity="1" fill-rule="nonzero"/><path fill="#000000" d="M 232.902344 179.078125 C 232.902344 180.558594 232.902344 181.972656 232.839844 183.449219 C 232.839844 183.707031 232.839844 184.027344 232.839844 184.285156 C 232.839844 184.800781 232.839844 185.3125 232.773438 185.765625 C 232.710938 187.371094 232.648438 189.042969 232.519531 190.648438 C 232.519531 191.164062 232.453125 191.613281 232.390625 192.128906 C 232.390625 192.449219 232.324219 192.707031 232.324219 193.027344 C 230.652344 214.75 225.183594 235.320312 216.367188 253.058594 C 215.914062 254.023438 215.402344 254.921875 214.949219 255.886719 C 214.628906 256.53125 214.242188 257.238281 213.855469 257.878906 C 212.957031 259.488281 212.054688 261.03125 211.152344 262.570312 C 209.800781 264.820312 208.386719 266.941406 206.90625 269.0625 C 203.558594 273.882812 199.957031 278.253906 196.222656 282.238281 C 195.710938 282.753906 195.195312 283.332031 194.679688 283.847656 C 194.164062 284.359375 193.585938 284.9375 193.070312 285.453125 C 192.234375 286.226562 191.398438 286.996094 190.5625 287.765625 C 190.496094 287.832031 190.433594 287.832031 190.433594 287.894531 C 189.597656 288.601562 188.761719 289.308594 187.921875 290.015625 C 185.21875 292.203125 182.453125 294.195312 179.621094 295.996094 C 176.789062 297.792969 173.894531 299.335938 170.933594 300.6875 C 167.652344 302.164062 164.308594 303.449219 160.960938 304.351562 C 155.234375 305.957031 149.378906 306.792969 143.457031 306.792969 C 141.589844 306.792969 139.726562 306.726562 137.859375 306.535156 C 125.632812 305.441406 113.726562 300.816406 102.851562 292.972656 C 102.273438 292.589844 101.757812 292.136719 101.179688 291.753906 C 100.792969 291.429688 100.34375 291.109375 99.957031 290.789062 C 99.699219 290.59375 99.441406 290.402344 99.183594 290.210938 L 101.242188 287.703125 L 102.210938 286.546875 L 102.273438 286.417969 C 102.851562 286.867188 103.367188 287.316406 103.945312 287.703125 C 104.269531 287.960938 104.527344 288.152344 104.847656 288.347656 C 105.492188 288.859375 106.199219 289.308594 106.84375 289.824219 C 109.867188 291.945312 113.019531 293.808594 116.171875 295.351562 C 118.488281 296.507812 120.804688 297.472656 123.121094 298.308594 C 125.953125 299.335938 128.785156 300.109375 131.679688 300.6875 C 131.875 300.75 132.066406 300.75 132.195312 300.816406 C 135.863281 301.523438 139.597656 301.90625 143.328125 301.90625 C 157.742188 301.90625 171.320312 296.636719 183.226562 287.445312 C 184.898438 286.160156 186.570312 284.746094 188.179688 283.332031 C 188.695312 282.820312 189.210938 282.367188 189.789062 281.855469 C 195.644531 276.261719 200.988281 269.707031 205.683594 262.316406 C 207.035156 260.195312 208.324219 258.007812 209.546875 255.757812 C 219.261719 238.148438 225.695312 216.679688 227.5 193.15625 C 227.5 192.898438 227.5625 192.578125 227.5625 192.253906 C 227.691406 190.96875 227.757812 189.683594 227.820312 188.335938 C 227.882812 186.726562 227.949219 185.121094 228.011719 183.515625 C 228.078125 182.035156 228.078125 180.621094 228.078125 179.144531 C 228.078125 160.3125 225.117188 142.507812 219.90625 126.566406 C 219.519531 125.410156 219.132812 124.316406 218.746094 123.226562 C 218.683594 122.96875 218.554688 122.710938 218.488281 122.453125 C 218.101562 121.359375 217.652344 120.203125 217.265625 119.175781 C 217.074219 118.660156 216.878906 118.210938 216.6875 117.699219 C 216.496094 117.3125 216.367188 116.863281 216.171875 116.476562 C 215.851562 115.703125 215.53125 114.871094 215.144531 114.097656 C 214.5625 112.8125 214.050781 111.527344 213.40625 110.304688 C 213.339844 110.242188 213.339844 110.113281 213.277344 110.046875 C 213.085938 109.664062 212.957031 109.339844 212.761719 108.957031 C 207.871094 98.863281 202.015625 89.929688 195.324219 82.347656 C 194.230469 81.0625 193.070312 79.839844 191.914062 78.683594 C 190.691406 77.398438 189.402344 76.175781 188.117188 75.019531 C 187.34375 74.3125 186.507812 73.605469 185.734375 72.898438 C 183.933594 71.417969 182.132812 70.003906 180.265625 68.71875 C 179.945312 68.464844 179.558594 68.269531 179.234375 68.011719 C 168.296875 60.558594 156.132812 56.445312 143.328125 56.445312 C 139.597656 56.445312 135.929688 56.828125 132.261719 57.535156 C 131.875 57.601562 131.488281 57.664062 131.039062 57.792969 C 128.269531 58.371094 125.503906 59.207031 122.738281 60.171875 C 122.738281 60.171875 122.738281 60.171875 122.671875 60.171875 C 117.203125 62.164062 111.863281 64.929688 106.777344 68.527344 C 106.648438 68.65625 106.457031 68.71875 106.328125 68.847656 C 105.492188 69.425781 104.65625 70.003906 103.882812 70.648438 C 103.304688 71.097656 102.789062 71.484375 102.210938 71.933594 L 102.144531 71.804688 L 100.859375 70.261719 L 99.121094 68.140625 C 99.378906 67.949219 99.636719 67.757812 99.890625 67.5625 C 100.277344 67.242188 100.664062 66.921875 101.113281 66.597656 C 102.144531 65.828125 103.238281 65.058594 104.269531 64.285156 C 112.699219 58.5 121.773438 54.578125 131.039062 52.78125 C 131.039062 52.78125 131.039062 52.78125 131.101562 52.78125 C 135.15625 52.007812 139.210938 51.558594 143.328125 51.558594 C 150.988281 51.558594 158.449219 52.910156 165.660156 55.542969 C 169.199219 56.828125 172.738281 58.4375 176.148438 60.363281 C 179.171875 62.035156 182.195312 64.027344 185.09375 66.214844 C 185.671875 66.664062 186.25 67.113281 186.828125 67.5625 C 187.085938 67.757812 187.34375 68.011719 187.601562 68.207031 C 188.632812 69.042969 189.597656 69.878906 190.5625 70.710938 C 191.207031 71.292969 191.914062 71.933594 192.554688 72.511719 C 193.265625 73.21875 193.972656 73.863281 194.746094 74.632812 C 195.902344 75.789062 197.0625 77.011719 198.21875 78.296875 C 199.3125 79.519531 200.40625 80.738281 201.4375 82.023438 C 203.367188 84.339844 205.234375 86.78125 207.035156 89.417969 C 210.894531 95.007812 214.4375 101.050781 217.460938 107.414062 C 217.71875 107.863281 217.910156 108.378906 218.167969 108.890625 C 218.296875 109.214844 218.425781 109.46875 218.554688 109.792969 C 218.554688 109.792969 218.554688 109.792969 218.554688 109.855469 C 218.941406 110.628906 219.261719 111.398438 219.582031 112.234375 C 219.839844 112.8125 220.097656 113.457031 220.355469 114.035156 C 220.675781 114.804688 221 115.511719 221.257812 116.285156 C 221.449219 116.734375 221.644531 117.183594 221.769531 117.632812 C 221.964844 118.082031 222.09375 118.53125 222.285156 118.984375 C 222.671875 120.074219 223.121094 121.234375 223.507812 122.324219 C 223.636719 122.582031 223.703125 122.902344 223.832031 123.160156 C 224.214844 124.253906 224.601562 125.410156 224.925781 126.503906 C 230.136719 142.570312 232.902344 160.570312 232.902344 179.078125 Z M 232.902344 179.078125 " fill-opacity="1" fill-rule="nonzero"/><path fill="#000000" d="M 266.496094 288.347656 L 266.558594 288.539062 C 258.707031 291.175781 250.277344 293.421875 241.527344 295.222656 C 240.238281 295.480469 238.886719 295.738281 237.601562 295.996094 C 237.539062 295.996094 237.410156 296.058594 237.28125 296.058594 C 235.09375 296.445312 232.902344 296.832031 230.84375 297.152344 C 230.652344 297.152344 230.457031 297.214844 230.203125 297.214844 C 215.207031 299.59375 198.992188 300.816406 182.003906 300.816406 C 178.335938 300.816406 174.667969 300.75 170.871094 300.621094 C 170.675781 300.621094 170.484375 300.621094 170.292969 300.621094 L 170.421875 295.738281 C 173.507812 295.800781 176.535156 295.867188 179.621094 295.929688 C 197.511719 296.058594 214.4375 294.835938 230.074219 292.332031 C 232.195312 292.007812 234.449219 291.625 236.699219 291.175781 C 244.230469 289.761719 251.5 288.023438 258.449219 285.902344 C 260.574219 285.261719 262.699219 284.617188 264.691406 283.910156 C 264.757812 283.910156 264.886719 283.847656 264.949219 283.847656 L 265.335938 283.71875 L 265.722656 283.71875 L 265.722656 286.160156 L 267.460938 287.894531 Z M 266.496094 288.347656 " fill-opacity="1" fill-rule="nonzero"/><path fill="#000000" d="M 321.515625 256.789062 C 317.652344 260.386719 313.535156 263.730469 309.222656 266.878906 C 308.902344 267.136719 308.578125 267.390625 308.195312 267.585938 L 307.871094 267.84375 L 306.457031 265.851562 L 304.71875 264.113281 L 304.847656 263.984375 L 305.039062 263.855469 C 308.964844 261.09375 312.699219 258.136719 316.238281 254.988281 C 316.878906 254.410156 317.589844 253.832031 318.230469 253.1875 Z M 321.515625 256.789062 " fill-opacity="1" fill-rule="nonzero"/><path fill="#000000" d="M 143.90625 294.066406 L 143.457031 298.953125 C 133.097656 297.921875 123.832031 296.636719 116.171875 295.417969 C 111.410156 294.644531 107.292969 293.875 103.882812 293.230469 L 103.558594 293.167969 C 103.496094 293.167969 103.433594 293.167969 103.367188 293.101562 L 103.304688 293.101562 C 103.304688 293.101562 103.238281 293.101562 103.238281 293.101562 C 103.109375 293.101562 102.917969 293.039062 102.789062 293.039062 C 96.546875 291.816406 93.007812 290.917969 92.878906 290.851562 L 92.878906 290.722656 L 94.035156 286.097656 C 94.035156 286.097656 96.546875 286.738281 100.921875 287.640625 C 100.988281 287.640625 101.113281 287.640625 101.179688 287.703125 C 102.082031 287.894531 103.109375 288.089844 104.203125 288.347656 C 104.269531 288.347656 104.398438 288.347656 104.460938 288.410156 L 104.527344 288.410156 C 104.589844 288.410156 104.65625 288.410156 104.71875 288.472656 C 104.78125 288.472656 104.847656 288.472656 104.976562 288.539062 C 106.261719 288.796875 107.742188 289.054688 109.222656 289.308594 C 117.71875 290.851562 129.492188 292.714844 143.394531 294.066406 C 143.585938 294.066406 143.714844 294.066406 143.90625 294.066406 Z M 143.90625 294.066406 " fill-opacity="1" fill-rule="nonzero"/><path fill="#000000" d="M 154.011719 120.589844 L 152.980469 115.832031 C 165.785156 113.070312 178.59375 110.882812 191.207031 109.339844 L 191.785156 114.164062 C 179.300781 115.703125 166.625 117.890625 154.011719 120.589844 Z M 154.011719 120.589844 " fill-opacity="1" fill-rule="nonzero"/><path fill="#000000" d="M 333.484375 128.945312 C 333.417969 128.945312 329.234375 126.886719 321.320312 124.253906 L 322.867188 119.625 C 331.101562 122.390625 335.476562 124.445312 335.605469 124.574219 Z M 333.484375 128.945312 " fill-opacity="1" fill-rule="nonzero"/><path fill="#000000" d="M 299.183594 118.210938 C 273.445312 112.554688 245.453125 110.5 215.980469 112.105469 L 215.722656 107.21875 C 245.644531 105.613281 274.023438 107.671875 300.214844 113.457031 Z M 299.183594 118.210938 " fill-opacity="1" fill-rule="nonzero"/><path fill="#000000" d="M 271.769531 79.390625 C 248.796875 70.96875 219.453125 68.078125 184.449219 70.96875 L 184.0625 66.085938 C 219.777344 63.191406 249.828125 66.148438 273.507812 74.828125 Z M 271.769531 79.390625 " fill-opacity="1" fill-rule="nonzero"/><path fill="#000000" d="M 124.34375 80.867188 L 123.058594 76.175781 C 123.1875 76.113281 138.953125 71.871094 161.410156 68.65625 L 162.117188 73.476562 C 139.984375 76.625 124.472656 80.804688 124.34375 80.867188 Z M 124.34375 80.867188 " fill-opacity="1" fill-rule="nonzero"/><path fill="#000000" d="M 230.203125 185.828125 L 311.28125 185.828125 L 311.28125 190.714844 L 230.203125 190.714844 Z M 230.203125 185.828125 " fill-opacity="1" fill-rule="nonzero"/><path fill="#000000" d="M 331.746094 185.828125 L 346.03125 185.828125 L 346.03125 190.714844 L 331.746094 190.714844 Z M 331.746094 185.828125 " fill-opacity="1" fill-rule="nonzero"/><path fill="#000000" d="M 164.949219 185.828125 L 204.140625 185.828125 L 204.140625 190.714844 L 164.949219 190.714844 Z M 164.949219 185.828125 " fill-opacity="1" fill-rule="nonzero"/><path fill="#000000" d="M 318.488281 248.6875 L 317.136719 243.996094 C 321.0625 242.902344 324.925781 241.617188 328.527344 240.332031 L 330.203125 244.894531 C 326.535156 246.246094 322.609375 247.53125 318.488281 248.6875 Z M 318.488281 248.6875 " fill-opacity="1" fill-rule="nonzero"/><path fill="#000000" d="M 234.320312 258.265625 C 227.175781 258.265625 219.839844 258.136719 212.3125 257.816406 L 212.503906 252.929688 C 244.035156 254.152344 271.898438 252.800781 295.195312 248.816406 L 296.03125 253.636719 C 278.011719 256.722656 257.292969 258.265625 234.320312 258.265625 Z M 234.320312 258.265625 " fill-opacity="1" fill-rule="nonzero"/><path fill="#000000" d="M 187.792969 256.402344 C 164.691406 254.601562 148.734375 252.09375 148.542969 252.09375 L 149.3125 247.273438 C 149.441406 247.273438 165.273438 249.78125 188.179688 251.582031 Z M 187.792969 256.402344 " fill-opacity="1" fill-rule="nonzero"/><path fill="#000000" d="M 209.160156 290.789062 C 201.824219 290.789062 194.421875 290.46875 186.828125 289.886719 L 187.214844 285.003906 C 218.554688 287.382812 247.832031 284.746094 274.152344 277.035156 L 275.503906 281.726562 C 255.039062 287.765625 232.773438 290.789062 209.160156 290.789062 Z M 209.160156 290.789062 " fill-opacity="1" fill-rule="nonzero"/><path fill="#000000" d="M 164.242188 287.316406 C 141.847656 283.910156 127.5625 279.285156 126.984375 279.089844 L 128.527344 274.460938 C 128.65625 274.527344 143.070312 279.21875 165.015625 282.5625 Z M 164.242188 287.316406 " fill-opacity="1" fill-rule="nonzero"/><path fill="#000000" d="M 109.929688 85.175781 C 109.929688 85.175781 96.480469 79.96875 85.671875 89.546875 L 80.585938 90.316406 C 80.585938 90.316406 57.421875 115.320312 53.304688 155.621094 C 49.183594 195.917969 62.3125 264.628906 97.0625 277.035156 C 97.0625 277.035156 78.011719 278.960938 58.449219 253.574219 C 38.890625 228.183594 36.445312 162.691406 44.035156 139.488281 C 51.628906 116.285156 74.023438 62.421875 109.929688 85.175781 Z M 109.929688 85.175781 " fill-opacity="1" fill-rule="nonzero"/><path fill="#000000" d="M 73.316406 85.882812 L 73.058594 92.375 L 65.722656 258.136719 L 65.402344 265.207031 C 63.792969 263.535156 62.246094 261.671875 60.769531 259.742188 L 61.089844 251.839844 L 67.910156 97.515625 L 68.230469 90.1875 C 69.90625 88.582031 71.578125 87.167969 73.316406 85.882812 Z M 73.316406 85.882812 " fill-opacity="1" fill-rule="nonzero"/><path fill="#000000" d="M 92.300781 78.617188 L 92.105469 82.796875 L 83.675781 272.792969 L 83.417969 277.996094 C 81.808594 277.355469 80.203125 276.582031 78.65625 275.683594 L 78.914062 270.15625 L 87.152344 84.019531 L 87.410156 78.8125 C 87.859375 78.683594 88.375 78.554688 88.824219 78.425781 Z M 92.300781 78.617188 " fill-opacity="1" fill-rule="nonzero"/><path fill="#000000" d="M 110.832031 80.226562 L 110.574219 85.429688 L 102.144531 275.363281 L 101.953125 279.15625 L 97.0625 278.960938 L 97.191406 275.8125 L 105.683594 83.632812 L 105.878906 78.617188 C 107.613281 79.070312 109.222656 79.582031 110.832031 80.226562 Z M 110.832031 80.226562 " fill-opacity="1" fill-rule="nonzero"/><path fill="#000000" d="M 128.851562 93.144531 L 128.527344 100.214844 L 121.191406 265.722656 L 120.933594 272.214844 C 119.261719 273.433594 117.589844 274.527344 115.914062 275.492188 L 116.171875 269.578125 L 123.894531 94.945312 L 124.152344 88.515625 C 125.761719 89.996094 127.304688 91.472656 128.851562 93.144531 Z M 128.851562 93.144531 " fill-opacity="1" fill-rule="nonzero"/><path fill="#000000" d="M 146.222656 120.910156 L 145.644531 133.574219 L 141.078125 236.863281 L 140.5625 248.882812 C 139.917969 250.039062 139.210938 251.195312 138.503906 252.351562 C 137.472656 254.023438 136.378906 255.628906 135.285156 257.171875 L 135.734375 247.46875 L 141.332031 121.8125 L 141.785156 111.527344 C 143.328125 114.546875 144.875 117.699219 146.222656 120.910156 Z M 146.222656 120.910156 " fill-opacity="1" fill-rule="nonzero"/><path fill="#c99a5b" d="M 87.410156 253.574219 C 87.410156 253.574219 72.542969 254.472656 66.109375 267.519531 L 52.917969 266.941406 C 52.917969 266.941406 59.738281 245.21875 78.269531 239.820312 L 78.914062 224.777344 C 78.914062 224.777344 85.222656 227.476562 89.917969 225.226562 L 89.402344 237.953125 C 89.402344 237.953125 98.605469 244.640625 87.410156 253.574219 Z M 87.410156 253.574219 " fill-opacity="1" fill-rule="nonzero"/><path fill="#000000" d="M 68.296875 268.804688 L 64.371094 266.8125 C 71.644531 252.480469 85.542969 251.257812 86.828125 251.195312 C 87.214844 251.132812 89.082031 250.9375 90.175781 250.875 L 90.496094 255.246094 C 89.402344 255.308594 87.28125 255.566406 87.28125 255.566406 C 87.214844 255.566406 87.214844 255.566406 87.152344 255.566406 C 86.570312 255.628906 74.539062 256.464844 68.296875 268.804688 Z M 68.296875 268.804688 " fill-opacity="1" fill-rule="nonzero"/><path fill="#000000" d="M 54.847656 267.90625 L 50.601562 266.621094 C 53.046875 258.394531 56.84375 251.773438 61.796875 246.953125 C 68.488281 240.460938 77.113281 237.441406 87.601562 237.890625 L 90.882812 238.019531 L 90.691406 242.390625 L 87.472656 242.261719 C 67.074219 241.363281 58.515625 255.695312 54.847656 267.90625 Z M 54.847656 267.90625 " fill-opacity="1" fill-rule="nonzero"/><path fill="#000000" d="M 88.050781 256.722656 C 86.699219 256.660156 85.414062 256.144531 84.320312 255.179688 L 87.214844 251.902344 C 87.539062 252.222656 87.859375 252.351562 88.179688 252.351562 C 89.53125 252.417969 91.65625 249.71875 91.847656 245.347656 C 92.042969 240.976562 90.175781 238.148438 88.824219 238.082031 C 87.921875 238.019531 86.765625 239.175781 86.058594 240.910156 L 82.003906 239.175781 C 83.546875 235.578125 86.121094 233.519531 89.015625 233.648438 C 93.394531 233.839844 96.546875 239.046875 96.289062 245.539062 C 96.03125 252.03125 92.429688 256.914062 88.050781 256.722656 Z M 88.050781 256.722656 " fill-opacity="1" fill-rule="nonzero"/><path fill="#000000" d="M 87.410156 256.722656 C 86.1875 256.660156 84.964844 256.144531 84 255.179688 L 87.085938 252.03125 C 87.214844 252.160156 87.472656 252.351562 87.667969 252.351562 C 88.566406 252.417969 90.496094 249.71875 90.691406 245.347656 C 90.882812 240.976562 89.210938 238.148438 88.308594 238.082031 C 87.859375 238.082031 86.894531 238.917969 86.121094 240.847656 L 82.003906 239.304688 C 83.355469 235.640625 85.800781 233.585938 88.503906 233.648438 C 91.527344 233.777344 93.90625 236.667969 94.746094 240.910156 C 95 242.324219 95.128906 243.867188 95.066406 245.539062 C 94.679688 252.09375 91.460938 256.914062 87.410156 256.722656 Z M 87.410156 256.722656 " fill-opacity="1" fill-rule="nonzero"/><path fill="#000000" d="M 59.78125 264.53125 C 60.359375 264.589844 60.933594 264.667969 61.5 264.765625 C 62.0625 264.867188 62.609375 264.984375 63.136719 265.121094 C 63.664062 265.261719 64.164062 265.414062 64.632812 265.582031 C 65.105469 265.753906 65.535156 265.9375 65.929688 266.132812 C 66.324219 266.328125 66.675781 266.53125 66.980469 266.746094 C 67.28125 266.960938 67.535156 267.179688 67.738281 267.402344 C 67.9375 267.625 68.085938 267.851562 68.175781 268.078125 C 68.269531 268.300781 68.304688 268.523438 68.28125 268.742188 C 68.261719 268.960938 68.183594 269.171875 68.046875 269.375 C 67.914062 269.578125 67.722656 269.769531 67.480469 269.949219 C 67.238281 270.128906 66.949219 270.292969 66.605469 270.441406 C 66.265625 270.589844 65.882812 270.722656 65.457031 270.835938 C 65.03125 270.949219 64.570312 271.039062 64.078125 271.113281 C 63.582031 271.1875 63.0625 271.238281 62.519531 271.269531 C 61.972656 271.296875 61.414062 271.304688 60.84375 271.289062 C 60.269531 271.277344 59.691406 271.238281 59.113281 271.179688 C 58.53125 271.125 57.960938 271.042969 57.394531 270.945312 C 56.828125 270.84375 56.285156 270.726562 55.753906 270.589844 C 55.226562 270.453125 54.730469 270.296875 54.257812 270.128906 C 53.789062 269.957031 53.355469 269.777344 52.960938 269.582031 C 52.566406 269.386719 52.21875 269.179688 51.914062 268.964844 C 51.609375 268.753906 51.355469 268.535156 51.15625 268.308594 C 50.953125 268.085938 50.804688 267.859375 50.714844 267.636719 C 50.625 267.410156 50.589844 267.1875 50.609375 266.96875 C 50.632812 266.75 50.710938 266.539062 50.84375 266.335938 C 50.980469 266.132812 51.167969 265.945312 51.410156 265.765625 C 51.652344 265.585938 51.945312 265.421875 52.285156 265.269531 C 52.625 265.121094 53.007812 264.992188 53.433594 264.878906 C 53.859375 264.765625 54.320312 264.671875 54.816406 264.597656 C 55.308594 264.523438 55.828125 264.472656 56.375 264.445312 C 56.917969 264.414062 57.476562 264.40625 58.050781 264.421875 C 58.625 264.4375 59.199219 264.472656 59.78125 264.53125 Z M 59.78125 264.53125 " fill-opacity="1" fill-rule="nonzero"/><path fill="#000000" d="M 78.207031 242.261719 C 76.855469 242.195312 75.824219 241.039062 75.890625 239.691406 L 76.597656 222.785156 C 76.664062 221.4375 77.820312 220.40625 79.171875 220.472656 L 90.175781 220.921875 C 91.527344 220.988281 92.558594 222.144531 92.492188 223.492188 L 91.976562 235.640625 C 91.914062 236.992188 90.753906 238.019531 89.402344 237.953125 C 88.050781 237.890625 87.023438 236.734375 87.085938 235.382812 L 87.539062 225.679688 L 81.425781 225.421875 L 80.78125 239.882812 C 80.652344 241.296875 79.558594 242.324219 78.207031 242.261719 Z M 78.207031 242.261719 " fill-opacity="1" fill-rule="nonzero"/><path fill="#000000" d="M 84.320312 227.863281 C 79.558594 227.671875 76.46875 225.613281 76.597656 222.785156 C 76.726562 219.957031 80.007812 218.222656 84.769531 218.414062 C 89.53125 218.609375 92.621094 220.664062 92.492188 223.492188 C 92.363281 226.320312 89.082031 228.054688 84.320312 227.863281 Z M 84.320312 227.863281 " fill-opacity="1" fill-rule="nonzero"/><path fill="#000000" d="M 64.949219 265.65625 C 64.949219 265.65625 69.710938 251.066406 88.4375 249.074219 C 88.4375 249.074219 90.433594 248.175781 90.5625 245.28125 C 90.691406 242.390625 92.683594 243.675781 92.75 246.183594 C 92.8125 248.6875 91.207031 254.214844 85.414062 254.667969 C 79.621094 255.117188 69.328125 261.09375 67.652344 264.820312 C 65.980469 268.550781 64.949219 265.65625 64.949219 265.65625 Z M 64.949219 265.65625 " fill-opacity="1" fill-rule="nonzero"/><path fill="#000000" d="M 90.5625 243.996094 C 90.5625 243.996094 90.496094 242.390625 87.988281 242.324219 C 85.476562 242.261719 82.519531 238.210938 87.085938 239.175781 C 91.71875 240.140625 93.007812 239.691406 90.5625 243.996094 Z M 90.5625 243.996094 " fill-opacity="1" fill-rule="nonzero"/><path fill="#000000" d="M 59.996094 266.492188 C 59.996094 266.492188 63.148438 252.09375 78.335938 245.730469 C 78.335938 245.730469 63.148438 247.273438 57.226562 266.621094 Z M 59.996094 266.492188 " fill-opacity="1" fill-rule="nonzero"/><path fill="#000000" d="M 82.96875 227.09375 L 82.324219 234.613281 L 80.78125 227.863281 L 81.167969 226 Z M 82.96875 227.09375 " fill-opacity="1" fill-rule="nonzero"/><path fill="#c99a5b" d="M 84.605469 221.796875 C 85.167969 221.824219 85.710938 221.878906 86.226562 221.972656 C 86.742188 222.0625 87.199219 222.179688 87.589844 222.320312 C 87.984375 222.464844 88.28125 222.625 88.492188 222.800781 C 88.699219 222.972656 88.800781 223.148438 88.792969 223.328125 C 88.785156 223.507812 88.667969 223.675781 88.445312 223.832031 C 88.222656 223.988281 87.910156 224.121094 87.507812 224.230469 C 87.105469 224.339844 86.640625 224.417969 86.117188 224.460938 C 85.597656 224.507812 85.054688 224.519531 84.492188 224.496094 C 83.929688 224.472656 83.386719 224.414062 82.871094 224.324219 C 82.355469 224.230469 81.898438 224.117188 81.507812 223.972656 C 81.113281 223.828125 80.816406 223.667969 80.605469 223.496094 C 80.398438 223.320312 80.296875 223.144531 80.304688 222.964844 C 80.3125 222.785156 80.429688 222.617188 80.652344 222.460938 C 80.875 222.308594 81.1875 222.175781 81.589844 222.066406 C 81.992188 221.957031 82.457031 221.878906 82.976562 221.832031 C 83.5 221.785156 84.042969 221.773438 84.605469 221.796875 Z M 84.605469 221.796875 " fill-opacity="1" fill-rule="nonzero"/><path fill="#000000" d="M 206.777344 184.351562 C 206.714844 186.984375 206.585938 189.621094 206.328125 192.191406 L 164.949219 192.191406 L 164.949219 184.351562 Z M 206.777344 184.351562 " fill-opacity="1" fill-rule="nonzero"/><path fill="#000000" d="M 313.921875 184.351562 C 313.855469 186.984375 313.726562 189.621094 313.46875 192.191406 L 227.5 192.191406 C 227.757812 189.621094 227.882812 186.984375 228.011719 184.351562 Z M 313.921875 184.351562 " fill-opacity="1" fill-rule="nonzero"/><path fill="#000000" d="M 346.03125 184.351562 L 346.03125 192.191406 L 328.980469 192.191406 C 329.234375 189.554688 329.429688 186.984375 329.492188 184.351562 Z M 346.03125 184.351562 " fill-opacity="1" fill-rule="nonzero"/><path fill="#000000" d="M 187.988281 254.214844 C 188.824219 254.28125 189.660156 254.34375 190.496094 254.472656 C 189.46875 256.59375 188.308594 258.714844 187.152344 260.707031 C 185.347656 260.515625 183.546875 260.324219 181.875 260.128906 C 165.785156 258.328125 153.882812 256.144531 148.734375 255.117188 C 146.933594 254.792969 145.96875 254.539062 145.96875 254.539062 L 149.121094 248.6875 C 150.085938 248.882812 150.988281 249.074219 151.953125 249.203125 C 163.339844 251.324219 174.539062 252.867188 185.285156 253.894531 C 186.1875 254.023438 187.085938 254.085938 187.988281 254.214844 Z M 187.988281 254.214844 " fill-opacity="1" fill-rule="nonzero"/><path fill="#000000" d="M 295.582031 250.875 C 296.675781 250.679688 297.769531 250.550781 298.796875 250.359375 C 297.640625 252.800781 296.351562 255.246094 295.066406 257.496094 C 292.941406 257.945312 290.820312 258.328125 288.695312 258.714844 C 262.117188 263.34375 234.769531 263.792969 211.152344 262.570312 C 209.289062 262.445312 207.421875 262.378906 205.554688 262.25 C 206.90625 260.128906 208.195312 257.945312 209.417969 255.695312 C 210.382812 255.757812 211.410156 255.757812 212.375 255.824219 C 213.210938 255.824219 214.050781 255.886719 214.886719 255.886719 C 246.097656 256.851562 272.929688 254.34375 292.8125 251.324219 C 293.777344 251.195312 294.679688 251.003906 295.582031 250.875 Z M 295.582031 250.875 " fill-opacity="1" fill-rule="nonzero"/><path fill="#000000" d="M 329.816406 243.609375 L 328.980469 245.347656 L 327.5625 248.175781 C 325.183594 249.074219 322.800781 249.972656 320.421875 250.746094 C 319.648438 251.003906 318.875 251.257812 318.101562 251.515625 C 315.914062 252.222656 313.664062 252.929688 311.410156 253.507812 C 312.570312 251.515625 313.597656 249.394531 314.628906 247.273438 C 315.785156 247.015625 316.878906 246.761719 317.976562 246.566406 C 318.941406 246.375 319.90625 246.117188 320.742188 245.925781 C 322.351562 245.539062 323.765625 245.21875 324.925781 244.894531 C 328.140625 244.125 329.816406 243.609375 329.816406 243.609375 Z M 329.816406 243.609375 " fill-opacity="1" fill-rule="nonzero"/><path fill="#000000" d="M 164.886719 70.390625 C 166.496094 71.675781 168.039062 73.027344 169.582031 74.503906 C 167.394531 74.761719 165.273438 75.082031 163.214844 75.339844 C 147.832031 77.589844 136.316406 80.226562 131.425781 81.382812 C 129.75 81.769531 128.851562 82.023438 128.851562 82.023438 L 127.046875 80.097656 L 124.730469 77.589844 C 125.246094 77.460938 125.761719 77.332031 126.339844 77.203125 C 137.152344 74.761719 147.832031 72.769531 158.066406 71.226562 C 159.289062 71.035156 160.511719 70.839844 161.734375 70.710938 C 162.761719 70.648438 163.855469 70.519531 164.886719 70.390625 Z M 164.886719 70.390625 " fill-opacity="1" fill-rule="nonzero"/><path fill="#000000" d="M 276.597656 80.867188 C 275.117188 80.417969 273.636719 79.902344 272.15625 79.519531 C 272.027344 79.453125 271.898438 79.453125 271.769531 79.390625 C 271.707031 79.390625 271.707031 79.390625 271.644531 79.324219 C 271.515625 79.261719 271.320312 79.261719 271.191406 79.195312 C 271.0625 79.132812 270.933594 79.132812 270.871094 79.070312 C 245.066406 71.742188 216.945312 70.777344 192.554688 72.320312 C 190.238281 72.449219 187.921875 72.640625 185.671875 72.832031 C 183.871094 71.355469 182.066406 69.941406 180.203125 68.65625 C 181.550781 68.527344 182.839844 68.398438 184.191406 68.269531 C 185.285156 68.140625 186.441406 68.078125 187.539062 68.011719 C 207.550781 66.46875 224.730469 66.664062 236.957031 68.078125 C 238.4375 68.269531 239.789062 68.398438 241.140625 68.65625 C 252.53125 70.390625 261.410156 73.476562 267.460938 76.113281 C 269.324219 76.882812 270.871094 77.65625 272.15625 78.363281 C 272.285156 78.425781 272.414062 78.488281 272.542969 78.554688 C 275.117188 79.839844 276.46875 80.738281 276.597656 80.867188 Z M 276.597656 80.867188 " fill-opacity="1" fill-rule="nonzero"/><path fill="#000000" d="M 165.980469 280.441406 C 167.910156 280.761719 169.90625 281.082031 172.027344 281.339844 C 170.550781 282.882812 169.070312 284.296875 167.589844 285.644531 C 167.460938 285.773438 167.332031 285.839844 167.203125 285.96875 C 166.300781 285.839844 165.464844 285.710938 164.5625 285.582031 C 163.277344 285.390625 161.992188 285.195312 160.703125 285.003906 C 151.242188 283.398438 141.589844 281.082031 130.332031 277.871094 C 129.429688 277.613281 128.59375 277.355469 127.691406 277.097656 L 129.945312 274.847656 L 131.679688 273.113281 C 131.679688 273.113281 132.710938 273.433594 134.578125 273.882812 C 139.53125 275.234375 150.921875 278.0625 165.980469 280.441406 Z M 165.980469 280.441406 " fill-opacity="1" fill-rule="nonzero"/><path fill="#000000" d="M 277.628906 275.554688 C 277.628906 275.554688 276.789062 276.457031 274.410156 277.804688 C 273.507812 278.320312 272.414062 278.832031 271.0625 279.410156 C 264.050781 282.433594 250.277344 286.351562 224.796875 287.253906 C 211.476562 287.765625 200.472656 287.960938 190.5625 287.703125 C 189.402344 287.640625 188.246094 287.640625 187.085938 287.574219 C 185.800781 287.511719 184.511719 287.445312 183.226562 287.382812 C 183.226562 287.382812 183.226562 287.382812 183.289062 287.382812 C 184.964844 286.097656 186.636719 284.683594 188.179688 283.269531 C 190.304688 283.460938 192.492188 283.652344 194.746094 283.847656 C 219.648438 285.710938 248.414062 284.875 274.28125 276.648438 C 275.375 276.261719 276.46875 275.941406 277.628906 275.554688 Z M 277.628906 275.554688 " fill-opacity="1" fill-rule="nonzero"/><path fill="#000000" d="M 131.039062 52.652344 C 131.039062 52.652344 184.769531 37.675781 219.582031 103.363281 C 254.398438 169.050781 238.503906 308.976562 137.730469 306.535156 L 133.804688 303.386719 C 133.804688 303.386719 179.300781 314.054688 213.535156 253.574219 C 247.769531 193.089844 222.542969 128.175781 215.914062 110.371094 C 209.289062 92.566406 183.226562 51.558594 131.039062 52.652344 Z M 131.039062 52.652344 " fill-opacity="1" fill-rule="nonzero"/><path fill="#000000" d="M 209.09375 178.242188 C 209.09375 178.242188 209.09375 282.304688 144.808594 298.695312 C 144.808594 298.695312 144.808594 298.695312 144.746094 298.695312 C 140.625 299.722656 136.25 300.429688 131.617188 300.6875 C 130.714844 300.75 129.75 300.75 128.785156 300.816406 L 122.996094 298.308594 C 123.316406 298.308594 127.304688 298.695312 133.355469 297.792969 C 136.378906 297.34375 139.855469 296.636719 143.652344 295.417969 C 149.054688 293.679688 155.105469 290.980469 161.152344 286.804688 C 161.796875 286.351562 162.503906 285.902344 163.148438 285.390625 C 163.664062 285.003906 164.113281 284.683594 164.5625 284.296875 C 165.914062 283.269531 167.265625 282.113281 168.617188 280.890625 C 174.21875 275.75 179.6875 269.0625 184.511719 260.449219 C 185.285156 259.101562 185.992188 257.75 186.699219 256.335938 C 187.023438 255.628906 187.410156 254.921875 187.730469 254.214844 C 187.792969 254.085938 187.859375 254.023438 187.859375 253.894531 C 189.660156 250.101562 191.332031 245.988281 192.8125 241.488281 C 198.863281 223.75 201.824219 207.167969 202.980469 192.191406 C 203.046875 191.675781 203.046875 191.226562 203.109375 190.714844 C 203.238281 189.042969 203.304688 187.433594 203.367188 185.828125 C 203.367188 185.3125 203.433594 184.800781 203.433594 184.351562 C 204.398438 157.035156 199.3125 136.015625 196.480469 125.089844 C 196.160156 123.933594 195.902344 122.902344 195.710938 122.003906 C 195.453125 121.105469 195.257812 120.269531 195.066406 119.5625 C 195 119.304688 194.9375 119.046875 194.875 118.726562 C 194.617188 117.890625 194.292969 116.925781 193.90625 115.832031 C 193.585938 114.933594 193.136719 113.90625 192.683594 112.875 C 192.554688 112.554688 192.429688 112.296875 192.300781 111.976562 C 191.976562 111.207031 191.589844 110.433594 191.207031 109.664062 C 191.140625 109.535156 191.078125 109.46875 191.011719 109.339844 C 187.410156 102.144531 181.679688 92.953125 174.410156 84.46875 C 173.378906 83.246094 172.351562 82.089844 171.257812 80.933594 C 169.390625 78.875 167.394531 76.882812 165.273438 75.019531 C 164.179688 73.992188 163.019531 73.027344 161.863281 72.0625 C 161.347656 71.675781 160.894531 71.292969 160.382812 70.90625 C 159.546875 70.261719 158.707031 69.621094 157.871094 69.042969 C 151.308594 64.414062 144.164062 61.136719 136.570312 60.171875 C 136.121094 60.109375 135.671875 60.042969 135.222656 60.042969 L 132.261719 58.308594 L 130.972656 57.535156 C 131.101562 57.535156 132.582031 57.535156 135.09375 57.859375 C 135.476562 57.921875 135.863281 57.988281 136.25 58.050781 C 141.078125 58.757812 148.796875 60.621094 157.421875 65.121094 C 163.726562 68.464844 170.550781 73.21875 177.113281 80.03125 C 178.207031 81.191406 179.300781 82.347656 180.328125 83.632812 C 186.570312 90.960938 192.363281 100.277344 197.125 112.234375 C 197.511719 113.261719 197.898438 114.289062 198.285156 115.320312 C 198.992188 117.183594 199.636719 119.113281 200.277344 121.105469 C 200.664062 122.195312 200.988281 123.355469 201.308594 124.511719 C 205.75 139.101562 208.578125 156.777344 209.09375 178.242188 Z M 209.09375 178.242188 " fill-opacity="1" fill-rule="nonzero"/><path fill="#000000" d="M 194.101562 111.847656 C 195 114.035156 195.902344 116.285156 196.675781 118.53125 C 195 118.789062 193.328125 119.113281 191.71875 119.238281 C 175.890625 120.589844 158.902344 124.382812 158.902344 124.382812 C 157.742188 124.703125 157.164062 124.832031 157.164062 124.832031 L 154.460938 120.527344 L 153.433594 118.277344 C 154.269531 118.082031 155.105469 117.953125 155.878906 117.824219 C 168.425781 115.449219 179.621094 113.777344 189.015625 112.554688 C 189.855469 112.425781 190.625 112.363281 191.398438 112.234375 C 192.363281 112.042969 193.265625 111.914062 194.101562 111.847656 Z M 194.101562 111.847656 " fill-opacity="1" fill-rule="nonzero"/><path fill="#000000" d="M 304.140625 120.460938 C 304.269531 120.78125 304.398438 121.105469 304.460938 121.425781 C 302.59375 120.976562 300.730469 120.589844 298.863281 120.203125 C 273.1875 114.996094 247.511719 114.417969 225.183594 115.703125 C 223.832031 115.769531 222.542969 115.898438 221.257812 115.960938 C 220.164062 116.027344 219.132812 116.089844 218.039062 116.21875 C 217.394531 116.285156 216.753906 116.347656 216.109375 116.347656 C 215.785156 115.578125 215.464844 114.742188 215.078125 113.96875 C 214.5 112.683594 213.984375 111.398438 213.339844 110.175781 C 213.277344 110.113281 213.277344 109.984375 213.210938 109.921875 C 214.050781 109.855469 214.886719 109.792969 215.59375 109.726562 C 215.65625 109.726562 215.722656 109.726562 215.785156 109.726562 C 216.753906 109.664062 217.652344 109.597656 218.425781 109.535156 C 221.0625 109.40625 222.414062 109.339844 222.414062 109.339844 C 253.367188 108.761719 278.335938 111.785156 296.804688 115.382812 C 297.769531 115.578125 298.667969 115.769531 299.570312 115.960938 C 300.601562 116.15625 301.566406 116.410156 302.59375 116.605469 C 302.660156 116.734375 302.660156 116.796875 302.722656 116.925781 C 303.238281 118.082031 303.6875 119.238281 304.140625 120.460938 Z M 304.140625 120.460938 " fill-opacity="1" fill-rule="nonzero"/><path fill="#000000" d="M 335.605469 131.195312 C 334.898438 130.9375 334.191406 130.617188 333.484375 130.359375 C 331.230469 129.460938 328.980469 128.625 326.660156 127.851562 C 324.730469 127.144531 322.800781 126.503906 320.804688 125.925781 C 320.675781 125.601562 320.613281 125.28125 320.484375 124.960938 C 320.035156 123.804688 319.648438 122.582031 319.199219 121.425781 C 319.132812 121.234375 319.003906 120.976562 318.941406 120.78125 C 320.035156 121.105469 321.128906 121.425781 322.15625 121.746094 C 323.121094 122.066406 324.023438 122.324219 324.925781 122.648438 C 327.304688 123.417969 329.234375 124.125 330.714844 124.640625 C 333.226562 125.539062 334.449219 126.117188 334.449219 126.117188 L 334.578125 126.761719 Z M 335.605469 131.195312 " fill-opacity="1" fill-rule="nonzero"/><path fill="#000000" d="M 317.203125 101.242188 C 317.203125 101.242188 339.210938 133.636719 337.535156 188.269531 C 335.863281 242.902344 313.726562 261.800781 309.09375 263.152344 C 309.09375 263.152344 323.765625 241.296875 330.265625 203.183594 C 336.765625 165.066406 324.023438 110.304688 311.28125 98.285156 Z M 317.203125 101.242188 " fill-opacity="1" fill-rule="nonzero"/><path fill="#000000" d="M 258.835938 72.832031 C 258.835938 72.832031 296.996094 89.160156 306.585938 162.945312 C 316.171875 236.734375 276.597656 285.96875 250.148438 290.917969 C 250.148438 290.917969 291.398438 288.988281 309.03125 208.386719 C 326.660156 127.789062 273.894531 68.207031 258.835938 72.832031 Z M 258.835938 72.832031 " fill-opacity="1" fill-rule="nonzero"/><path fill="#000000" d="M 121.191406 87.101562 L 115.53125 145.65625 L 117.074219 84.339844 Z M 121.191406 87.101562 " fill-opacity="1" fill-rule="nonzero"/><path fill="#000000" d="M 83.546875 90.316406 L 77.949219 148.933594 L 79.492188 87.550781 Z M 83.546875 90.316406 " fill-opacity="1" fill-rule="nonzero"/><path fill="#000000" d="M 130.523438 258.910156 L 130.523438 225.164062 L 127.113281 263.792969 Z M 130.523438 258.910156 " fill-opacity="1" fill-rule="nonzero"/><path fill="#000000" d="M 59.160156 221.757812 L 59.351562 179.785156 L 55.621094 222.144531 Z M 59.160156 221.757812 " fill-opacity="1" fill-rule="nonzero"/><path fill="#000000" d="M 92.621094 274.335938 L 92.621094 240.527344 L 89.210938 279.15625 Z M 92.621094 274.335938 " fill-opacity="1" fill-rule="nonzero"/><path fill="#000000" d="M 151.179688 150.476562 L 148.605469 188.269531 L 148.605469 141.414062 Z M 151.179688 150.476562 " fill-opacity="1" fill-rule="nonzero"/><path fill="#000000" d="M 97.191406 138.652344 C 97.191406 138.652344 90.882812 170.722656 92.8125 206.074219 C 92.8125 206.074219 97.191406 179.785156 97.191406 138.652344 Z M 97.191406 138.652344 " fill-opacity="1" fill-rule="nonzero"/><path fill="#000000" d="M 136.636719 85.367188 C 135.863281 85.558594 135.476562 85.6875 135.476562 85.6875 L 136.507812 89.480469 C 136.570312 89.480469 137.601562 89.160156 139.402344 88.773438 C 143.84375 87.746094 153.046875 85.6875 165.53125 83.824219 C 159.546875 81.511719 139.917969 84.53125 136.636719 85.367188 Z M 136.636719 85.367188 " fill-opacity="1" fill-rule="nonzero"/><path fill="#000000" d="M 276.339844 81.640625 C 275.4375 81.445312 274.472656 81.253906 273.574219 81.0625 C 272.285156 80.804688 271 80.484375 269.710938 80.289062 C 227.882812 74.054688 209.546875 79.839844 209.546875 79.839844 C 229.621094 79.324219 252.082031 80.484375 274.539062 85.238281 C 274.925781 85.304688 275.246094 85.367188 275.632812 85.496094 L 276.019531 83.566406 L 276.40625 81.769531 L 276.40625 81.703125 C 276.40625 81.703125 276.339844 81.703125 276.339844 81.640625 Z M 276.339844 81.640625 " fill-opacity="1" fill-rule="nonzero"/><path fill="#000000" d="M 200.664062 125.667969 C 200.921875 126.824219 201.179688 127.917969 201.4375 129.136719 C 200.535156 129.136719 199.636719 129.203125 198.796875 129.203125 C 198.027344 129.203125 197.253906 129.265625 196.480469 129.265625 C 195.582031 129.265625 194.679688 129.332031 193.777344 129.332031 C 185.476562 129.589844 178.140625 130.039062 172.15625 130.488281 C 172.15625 130.488281 179.558594 128.175781 193.070312 126.503906 C 193.972656 126.375 194.9375 126.246094 195.902344 126.179688 C 196.546875 126.117188 197.253906 126.054688 197.960938 125.988281 C 198.863281 125.859375 199.765625 125.796875 200.664062 125.667969 Z M 200.664062 125.667969 " fill-opacity="1" fill-rule="nonzero"/><path fill="#000000" d="M 276.40625 126.886719 C 266.042969 125.859375 255.167969 125.472656 244.292969 125.601562 C 239.082031 125.667969 233.804688 125.796875 228.65625 126.054688 C 228.269531 126.054688 227.949219 126.054688 227.5625 126.117188 C 226.660156 126.179688 225.761719 126.179688 224.859375 126.246094 C 224.472656 126.246094 224.089844 126.308594 223.765625 126.308594 C 222.992188 126.375 222.222656 126.375 221.449219 126.4375 C 221.0625 126.4375 220.742188 126.503906 220.355469 126.503906 C 220.164062 126.503906 219.96875 126.503906 219.777344 126.566406 C 219.390625 125.410156 219.003906 124.316406 218.617188 123.226562 C 218.554688 122.96875 218.425781 122.710938 218.359375 122.453125 C 218.554688 122.453125 218.746094 122.390625 218.941406 122.390625 C 219.324219 122.324219 219.710938 122.324219 220.097656 122.261719 C 220.804688 122.195312 221.515625 122.132812 222.222656 122.066406 C 222.609375 122.066406 223.058594 122.003906 223.445312 122.003906 C 224.34375 121.941406 225.246094 121.875 226.148438 121.8125 C 226.535156 121.8125 226.917969 121.746094 227.304688 121.746094 C 265.53125 120.71875 276.40625 126.886719 276.40625 126.886719 Z M 276.40625 126.886719 " fill-opacity="1" fill-rule="nonzero"/><path fill="#000000" d="M 237.28125 246.375 C 231.746094 246.375 226.148438 246.246094 220.421875 246.054688 L 220.546875 242.132812 C 245.324219 242.96875 268.167969 242.003906 288.375 239.175781 C 288.375 239.175781 279.558594 246.375 237.28125 246.375 Z M 237.28125 246.375 " fill-opacity="1" fill-rule="nonzero"/><path fill="#000000" d="M 154.460938 239.753906 C 153.496094 239.691406 155.167969 235.898438 155.167969 235.898438 C 155.296875 235.898438 166.109375 237.828125 182.839844 239.5625 C 182.839844 239.5625 178.785156 241.488281 154.460938 239.753906 Z M 154.460938 239.753906 " fill-opacity="1" fill-rule="nonzero"/><path fill="#000000" d="M 311.28125 179.335938 L 262.441406 179.335938 C 262.441406 179.335938 270.675781 174.453125 311.28125 175.414062 C 312.246094 175.414062 311.28125 179.335938 311.28125 179.335938 Z M 311.28125 179.335938 " fill-opacity="1" fill-rule="nonzero"/><path fill="#000000" d="M 162.957031 196.113281 L 191.71875 196.113281 C 191.71875 196.113281 186.828125 200.996094 162.890625 200.03125 C 162.375 200.03125 162.957031 196.113281 162.957031 196.113281 Z M 162.957031 196.113281 " fill-opacity="1" fill-rule="nonzero"/><path fill="#000000" d="M 231.167969 276.199219 C 223.25 276.199219 214.628906 275.875 205.425781 275.296875 L 205.683594 271.378906 C 231.167969 273.046875 251.824219 272.40625 267.074219 269.386719 C 267.136719 269.386719 254.398438 277.035156 231.167969 276.199219 Z M 231.167969 276.199219 " fill-opacity="1" fill-rule="nonzero"/><path fill="#000000" d="M 180.136719 272.984375 C 166.367188 271.441406 157.484375 265.976562 157.484375 265.976562 C 157.550781 265.976562 166.945312 267.585938 180.523438 269.128906 Z M 180.136719 272.984375 " fill-opacity="1" fill-rule="nonzero"/><path fill="#000000" d="M 127.433594 58.886719 C 127.433594 58.886719 167.203125 49.4375 196.738281 96.679688 C 196.738281 96.679688 180.265625 51.171875 131.039062 55.285156 Z M 127.433594 58.886719 " fill-opacity="1" fill-rule="nonzero"/><path fill="#000000" d="M 214.757812 209.867188 C 214.757812 209.867188 207.871094 271.121094 166.429688 292.523438 C 166.429688 292.523438 214.757812 278.0625 214.757812 209.867188 Z M 214.757812 209.867188 " fill-opacity="1" fill-rule="nonzero"/><path fill="#000000" d="M 321.320312 190.714844 C 321.320312 190.714844 324.089844 109.339844 276.660156 72.191406 C 276.597656 72.191406 328.980469 102.527344 321.320312 190.714844 Z M 321.320312 190.714844 " fill-opacity="1" fill-rule="nonzero"/><path fill="#000000" d="M 303.496094 251.195312 C 303.496094 251.195312 284.125 292.136719 246.609375 294.128906 L 241.847656 299.464844 C 241.914062 299.402344 285.09375 303 303.496094 251.195312 Z M 303.496094 251.195312 " fill-opacity="1" fill-rule="nonzero"/><g clip-path="url(#39c1e7046d)"><path fill="#000000" d="M 208.066406 329.160156 C 207.484375 329.996094 206.457031 330.511719 205.425781 330.511719 L 184.511719 330.511719 L 184.511719 324.082031 L 200.921875 324.082031 L 191.976562 298.4375 L 193.199219 298.050781 L 198.089844 296.378906 L 208.515625 326.332031 C 208.835938 327.230469 208.707031 328.324219 208.066406 329.160156 Z M 208.066406 329.160156 " fill-opacity="1" fill-rule="nonzero"/></g><path fill="#000000" d="M 324.667969 314.25 L 303.753906 314.25 C 302.335938 314.25 301.050781 313.285156 300.664062 311.933594 L 291.207031 279.539062 L 297.382812 277.742188 L 306.132812 307.820312 L 320.292969 307.820312 L 306.648438 264.113281 L 312.761719 262.1875 L 327.691406 310.136719 C 328.011719 311.097656 327.820312 312.191406 327.242188 312.964844 C 326.597656 313.796875 325.695312 314.25 324.667969 314.25 Z M 324.667969 314.25 " fill-opacity="1" fill-rule="nonzero"/><path fill="#000000" d="M 302.660156 314.121094 C 302.402344 314.054688 276.339844 305.058594 239.855469 299.335938 L 240.820312 292.972656 C 277.882812 298.757812 304.460938 307.949219 304.71875 308.015625 Z M 302.660156 314.121094 " fill-opacity="1" fill-rule="nonzero"/><g clip-path="url(#1d78ce437c)"><path fill="#000000" d="M 186.765625 329.675781 C 186.1875 330.253906 185.347656 330.574219 184.578125 330.574219 C 184.253906 330.574219 183.871094 330.511719 183.546875 330.382812 C 183.03125 330.1875 130.265625 312.128906 90.882812 317.078125 C 89.789062 317.207031 88.695312 316.753906 87.988281 315.917969 C 87.28125 315.019531 87.085938 313.863281 87.472656 312.835938 L 96.160156 289.179688 L 99.121094 290.273438 L 102.144531 291.367188 L 95.195312 310.136719 C 127.628906 307.628906 165.464844 317.976562 179.75 322.410156 L 172.671875 298.117188 L 172.027344 295.800781 L 178.207031 294.003906 L 179.429688 298.117188 L 187.023438 324.082031 L 187.664062 326.394531 C 187.730469 326.523438 187.730469 326.652344 187.730469 326.78125 C 187.859375 327.875 187.539062 328.902344 186.765625 329.675781 Z M 186.765625 329.675781 " fill-opacity="1" fill-rule="nonzero"/></g><path fill="#000000" d="M 186.441406 309.363281 L 191.785156 325.625 L 186.894531 325.625 Z M 186.441406 309.363281 " fill-opacity="1" fill-rule="nonzero"/><path fill="#000000" d="M 316.171875 309.554688 L 312.632812 295.09375 L 320.292969 307.886719 C 320.292969 307.886719 320.804688 311.226562 316.171875 309.554688 Z M 316.171875 309.554688 " fill-opacity="1" fill-rule="nonzero"/></svg>