<svg xmlns="http://www.w3.org/2000/svg" xmlns:xlink="http://www.w3.org/1999/xlink" width="500" zoomAndPan="magnify" viewBox="0 0 375 374.999991" height="500" preserveAspectRatio="xMidYMid meet" version="1.0"><defs><g/><clipPath id="2bb5455fed"><path d="M 286 60 L 321.203125 60 L 321.203125 205 L 286 205 Z M 286 60 " clip-rule="nonzero"/></clipPath><clipPath id="d99ec9f9fc"><path d="M 53.453125 38 L 171 38 L 171 225 L 53.453125 225 Z M 53.453125 38 " clip-rule="nonzero"/></clipPath><clipPath id="9f3be05633"><path d="M 103 223 L 188 223 L 188 258.15625 L 103 258.15625 Z M 103 223 " clip-rule="nonzero"/></clipPath></defs><path fill="#c99a5b" d="M 276.542969 216.261719 L 288.914062 200.988281 L 300.585938 240.699219 L 283.773438 241.394531 Z M 276.542969 216.261719 " fill-opacity="1" fill-rule="nonzero"/><path fill="#c99a5b" d="M 179.136719 232.070312 L 185.078125 254.847656 L 201.574219 254.417969 L 194.34375 231.265625 Z M 179.136719 232.070312 " fill-opacity="1" fill-rule="nonzero"/><path fill="#c99a5b" d="M 289.179688 200.507812 C 289.179688 200.507812 271.882812 227.195312 247.839844 231.105469 L 282.058594 241.394531 L 301.65625 241.394531 Z M 289.179688 200.507812 " fill-opacity="1" fill-rule="nonzero"/><path fill="#000000" d="M 275.847656 217.226562 C 275.847656 217.226562 255.550781 230.140625 249.5 230.675781 L 283.824219 241.554688 Z M 275.847656 217.226562 " fill-opacity="1" fill-rule="nonzero"/><path fill="#000000" d="M 202.214844 254.898438 L 184.0625 254.898438 C 184.0625 254.898438 174.796875 252.917969 156.75 247.828125 C 138.703125 242.734375 107.484375 243.753906 107.484375 243.753906 L 113.695312 224.40625 L 113.695312 224.355469 C 126.28125 229.550781 155.359375 230.785156 174.957031 231 C 176.941406 231 178.8125 231.054688 180.527344 231.054688 L 186.847656 252.703125 L 198.464844 252.703125 L 191.023438 231.320312 L 192.039062 231 C 193.539062 231 194.34375 230.945312 194.34375 230.945312 Z M 202.214844 254.898438 " fill-opacity="1" fill-rule="nonzero"/><path fill="#c99a5b" d="M 150.484375 235.5 C 148.988281 235.5 147.539062 235.445312 146.042969 235.285156 L 145.933594 235.285156 C 136.242188 234.375 126.921875 230.785156 118.25 224.515625 L 117.765625 224.195312 L 117.175781 224.085938 C 114.875 223.605469 113 223.230469 111.660156 222.90625 L 111.875 222.101562 L 108.554688 222.101562 C 98.433594 221.140625 88.6875 215.726562 80.390625 206.402344 C 79.691406 205.652344 79.050781 204.902344 78.40625 204.097656 L 77.765625 203.292969 C 77.710938 203.1875 77.605469 203.132812 77.550781 203.027344 L 77.496094 202.917969 C 77.230469 202.597656 77.015625 202.273438 76.746094 201.953125 C 76.746094 201.953125 76.210938 201.257812 76.105469 201.097656 C 74.925781 199.433594 73.695312 197.667969 72.570312 195.84375 C 61.96875 178.75 56.128906 155.972656 56.128906 131.699219 C 56.128906 107.476562 61.96875 84.699219 72.570312 67.550781 C 82.210938 51.957031 94.953125 42.683594 108.503906 41.34375 L 112.035156 41.34375 L 111.714844 40.378906 C 113.910156 39.738281 116.160156 39.148438 118.300781 38.558594 L 120.660156 38.558594 L 120.660156 37.324219 C 127.03125 33.09375 133.832031 30.304688 140.792969 28.914062 L 140.953125 28.914062 C 144.113281 28.324219 147.328125 28 150.539062 28 C 156.535156 28 162.480469 29.074219 168.210938 31.164062 L 168.691406 31.324219 L 169.175781 31.324219 C 171.15625 31.269531 173.191406 31.21875 175.226562 31.21875 C 190.753906 31.21875 206.339844 32.878906 221.546875 36.148438 L 221.8125 36.199219 L 222.5625 36.199219 L 223.046875 36.039062 C 228.507812 33.949219 234.132812 32.933594 239.808594 32.933594 C 257.640625 32.933594 274.453125 43.113281 287.09375 61.65625 L 287.09375 62.246094 L 287.789062 62.726562 L 288.269531 63.476562 L 288.914062 63.476562 C 296.945312 68.996094 303.90625 77.570312 309.046875 88.34375 C 315.257812 101.257812 318.527344 116.53125 318.527344 132.5 C 318.527344 134.753906 318.472656 137.054688 318.3125 139.359375 C 316.972656 161.546875 309.207031 181.695312 296.945312 194.613281 L 296.839844 194.71875 C 294.535156 197.128906 292.125 199.273438 289.554688 201.097656 L 289.5 200.933594 L 286.929688 202.863281 C 286.664062 203.078125 286.449219 203.238281 286.179688 203.402344 L 285.96875 203.5625 L 285.058594 204.203125 L 285.058594 204.742188 C 272.6875 221.460938 256.621094 230.675781 239.808594 230.675781 C 234.398438 230.675781 228.988281 229.714844 223.742188 227.835938 L 223.097656 227.625 L 222.402344 227.730469 C 210.085938 229.714844 196.699219 230.679688 182.667969 230.679688 C 179.5625 230.679688 176.457031 230.625 173.511719 230.515625 L 172.871094 230.515625 L 172.28125 230.785156 C 169.765625 231.964844 167.195312 232.929688 164.621094 233.625 L 164.355469 233.679688 C 159.804688 234.859375 155.144531 235.5 150.484375 235.5 Z M 150.484375 235.5 " fill-opacity="1" fill-rule="nonzero"/><g clip-path="url(#2bb5455fed)"><path fill="#000000" d="M 321.203125 132.5 C 321.203125 134.859375 321.148438 137.21875 320.988281 139.523438 C 319.648438 162.296875 311.5625 183.089844 298.871094 196.433594 C 298.871094 196.488281 298.820312 196.488281 298.765625 196.542969 C 295.554688 199.917969 292.125 202.757812 288.539062 204.953125 L 288.378906 204.6875 L 286.394531 201.523438 C 289.074219 199.863281 291.695312 197.828125 294.160156 195.414062 C 294.75 194.828125 295.339844 194.238281 295.925781 193.648438 C 295.925781 193.59375 295.980469 193.59375 295.980469 193.539062 C 297.425781 191.984375 298.871094 190.324219 300.210938 188.554688 C 301.550781 186.789062 302.835938 184.914062 304.011719 182.984375 C 311.027344 171.515625 315.527344 157.046875 316.757812 141.398438 C 316.8125 140.699219 316.867188 139.949219 316.917969 139.253906 C 316.972656 138.609375 316.972656 137.96875 317.027344 137.324219 C 317.078125 135.714844 317.132812 134.109375 317.132812 132.5 C 317.132812 117.015625 314.027344 102.222656 308.082031 89.628906 C 307.976562 89.414062 307.871094 89.199219 307.761719 88.988281 C 306.957031 87.273438 306.101562 85.664062 305.191406 84.054688 C 302.460938 79.234375 299.300781 74.945312 295.875 71.355469 C 293.144531 68.460938 290.199219 65.996094 287.144531 64.015625 L 289.394531 60.585938 C 289.5 60.636719 289.609375 60.746094 289.714844 60.796875 C 298.445312 66.585938 305.941406 75.695312 311.457031 87.21875 C 317.828125 100.453125 321.203125 116.15625 321.203125 132.5 Z M 321.203125 132.5 " fill-opacity="1" fill-rule="nonzero"/></g><path fill="#000000" d="M 259.246094 44.9375 L 257.691406 48.6875 C 257.585938 48.632812 257.480469 48.632812 257.425781 48.578125 C 247.25 44.453125 236.648438 41.023438 225.777344 38.453125 C 224.492188 38.128906 223.152344 37.863281 221.8125 37.539062 C 220.902344 37.324219 219.941406 37.164062 219.03125 36.949219 C 205.429688 34.164062 191.613281 32.664062 177.796875 32.503906 C 174.796875 32.449219 171.746094 32.503906 168.746094 32.554688 L 168.691406 32.554688 L 168.691406 30.464844 L 168.640625 28.484375 C 168.800781 28.484375 168.90625 28.484375 169.066406 28.484375 C 186.847656 28 204.679688 29.664062 222.082031 33.414062 C 222.296875 33.46875 222.457031 33.519531 222.671875 33.519531 C 223.902344 33.789062 225.132812 34.058594 226.3125 34.324219 C 226.417969 34.324219 226.582031 34.378906 226.6875 34.433594 C 227.8125 34.699219 228.882812 34.96875 230.007812 35.234375 C 239.859375 37.753906 249.5 40.917969 258.816406 44.667969 C 258.925781 44.828125 259.085938 44.882812 259.246094 44.9375 Z M 259.246094 44.9375 " fill-opacity="1" fill-rule="nonzero"/><path fill="#000000" d="M 145.183594 34.59375 C 145.078125 34.59375 145.023438 34.59375 144.917969 34.648438 C 136.777344 35.773438 128.582031 37.378906 120.496094 39.417969 C 120.496094 39.417969 120.445312 39.417969 120.445312 39.417969 C 120.390625 39.417969 120.335938 39.417969 120.285156 39.46875 L 120.121094 39.523438 C 120.015625 39.578125 119.855469 39.578125 119.75 39.628906 C 119.640625 39.628906 119.535156 39.683594 119.425781 39.738281 C 118.035156 40.113281 116.589844 40.488281 115.195312 40.863281 C 115.144531 40.863281 115.089844 40.917969 115.035156 40.917969 C 113.214844 41.398438 111.449219 41.933594 109.628906 42.46875 L 108.449219 38.664062 L 108.449219 38.558594 C 111.660156 37.59375 114.875 36.683594 118.035156 35.824219 C 118.140625 35.773438 118.25 35.773438 118.410156 35.71875 C 118.625 35.664062 118.835938 35.609375 119.050781 35.558594 C 119.105469 35.558594 119.105469 35.558594 119.160156 35.558594 L 119.320312 35.503906 C 123.980469 34.324219 128.746094 33.253906 133.457031 32.394531 C 137.207031 31.699219 141.007812 31.054688 144.757812 30.574219 Z M 145.183594 34.59375 " fill-opacity="1" fill-rule="nonzero"/><g clip-path="url(#d99ec9f9fc)"><path fill="#000000" d="M 163.5 87.273438 C 163.445312 87.058594 163.335938 86.84375 163.285156 86.574219 C 163.230469 86.414062 163.175781 86.308594 163.125 86.144531 C 162.910156 85.503906 162.640625 84.859375 162.425781 84.21875 C 162.214844 83.628906 162 82.984375 161.730469 82.394531 C 161.515625 81.804688 161.25 81.214844 161.035156 80.625 C 161.035156 80.574219 161.035156 80.574219 160.980469 80.519531 C 160.929688 80.414062 160.929688 80.304688 160.875 80.25 C 160.660156 79.714844 160.390625 79.125 160.179688 78.589844 C 158.25 74.195312 156.109375 70.015625 153.699219 66.15625 C 151.933594 63.316406 150.058594 60.636719 148.074219 58.171875 C 147.328125 57.207031 146.523438 56.296875 145.71875 55.386719 C 144.648438 54.152344 143.523438 52.972656 142.347656 51.902344 C 141.757812 51.3125 141.167969 50.777344 140.578125 50.242188 C 139.988281 49.707031 139.402344 49.222656 138.8125 48.742188 C 138.117188 48.203125 137.417969 47.667969 136.722656 47.132812 C 136.5625 47.027344 136.457031 46.917969 136.296875 46.8125 C 135.707031 46.382812 135.117188 45.953125 134.527344 45.578125 C 130.03125 42.578125 125.316406 40.542969 120.390625 39.417969 C 120.285156 39.417969 120.175781 39.363281 120.070312 39.363281 C 118.195312 38.933594 116.265625 38.664062 114.339844 38.558594 C 114.285156 38.558594 114.234375 38.558594 114.234375 38.558594 C 113.484375 38.503906 112.785156 38.503906 112.035156 38.503906 C 110.804688 38.503906 109.628906 38.558594 108.394531 38.664062 C 93.9375 40.058594 80.550781 49.707031 70.320312 66.15625 C 59.449219 83.734375 53.453125 106.992188 53.453125 131.699219 C 53.453125 156.402344 59.449219 179.714844 70.320312 197.238281 C 71.5 199.167969 72.730469 200.988281 74.015625 202.703125 C 74.230469 202.972656 74.445312 203.238281 74.660156 203.5625 C 74.925781 203.882812 75.195312 204.257812 75.460938 204.578125 C 75.570312 204.742188 75.675781 204.847656 75.785156 205.007812 C 75.945312 205.167969 76.050781 205.328125 76.210938 205.542969 C 76.960938 206.457031 77.710938 207.367188 78.460938 208.222656 C 87.242188 218.085938 97.578125 223.816406 108.503906 224.835938 C 109.679688 224.945312 110.859375 224.996094 112.035156 224.996094 C 112.785156 224.996094 113.484375 224.996094 114.234375 224.945312 C 114.285156 224.945312 114.339844 224.945312 114.339844 224.945312 C 116.265625 224.835938 118.195312 224.570312 120.070312 224.140625 C 120.175781 224.140625 120.335938 224.085938 120.445312 224.03125 C 121.035156 223.925781 121.570312 223.765625 122.15625 223.605469 C 127.671875 222.101562 132.976562 219.316406 137.957031 215.40625 C 138.492188 214.976562 139.078125 214.492188 139.613281 214.066406 C 139.9375 213.796875 140.257812 213.476562 140.632812 213.207031 C 140.953125 212.886719 141.328125 212.5625 141.648438 212.296875 C 142.132812 211.8125 142.667969 211.332031 143.148438 210.847656 C 143.632812 210.367188 144.167969 209.832031 144.648438 209.296875 C 147.863281 205.867188 150.914062 201.847656 153.699219 197.34375 C 154.128906 196.648438 154.554688 195.898438 154.984375 195.148438 C 155.414062 194.398438 155.839844 193.59375 156.324219 192.789062 C 156.804688 191.933594 157.234375 191.074219 157.660156 190.21875 C 157.875 189.789062 158.089844 189.359375 158.304688 188.984375 C 164.785156 175.75 168.800781 160.101562 170.085938 143.433594 C 170.085938 143.21875 170.136719 142.953125 170.136719 142.683594 C 170.191406 142.253906 170.191406 141.878906 170.246094 141.449219 C 170.351562 140.109375 170.40625 138.71875 170.460938 137.378906 C 170.460938 136.949219 170.460938 136.574219 170.511719 136.144531 C 170.511719 135.929688 170.511719 135.664062 170.511719 135.449219 C 170.566406 134.214844 170.566406 133.039062 170.566406 131.804688 C 170.511719 115.941406 168.105469 100.777344 163.5 87.273438 Z M 111.984375 220.871094 C 101.863281 220.871094 92.4375 216.371094 84.296875 208.492188 C 83.226562 207.472656 82.210938 206.402344 81.191406 205.277344 C 81.03125 205.0625 80.816406 204.847656 80.65625 204.632812 C 80.226562 204.152344 79.800781 203.613281 79.371094 203.132812 C 79.265625 203.027344 79.210938 202.917969 79.105469 202.8125 C 78.835938 202.4375 78.515625 202.113281 78.246094 201.738281 C 77.871094 201.257812 77.550781 200.828125 77.175781 200.347656 C 76.695312 199.703125 76.210938 199.007812 75.730469 198.308594 C 64.589844 181.910156 57.523438 158.171875 57.523438 131.699219 C 57.523438 82.554688 81.941406 42.578125 111.984375 42.578125 C 142.023438 42.578125 166.445312 82.554688 166.445312 131.699219 C 166.445312 180.839844 142.023438 220.871094 111.984375 220.871094 Z M 111.984375 220.871094 " fill-opacity="1" fill-rule="nonzero"/></g><path fill="#000000" d="M 152.894531 83.199219 C 151.769531 80.464844 150.484375 77.839844 149.148438 75.320312 C 148.289062 73.714844 147.378906 72.160156 146.414062 70.605469 C 143.898438 66.585938 141.222656 63.050781 138.382812 59.996094 C 137.097656 58.601562 135.8125 57.367188 134.472656 56.191406 C 130.941406 53.136719 127.191406 50.777344 123.390625 49.222656 C 122.050781 48.6875 120.710938 48.257812 119.375 47.882812 C 117.875 47.507812 116.375 47.238281 114.820312 47.078125 L 114.769531 47.078125 C 113.804688 46.972656 112.894531 46.917969 111.929688 46.917969 C 109.628906 46.917969 107.324219 47.1875 105.074219 47.722656 C 104.699219 47.828125 104.273438 47.9375 103.898438 48.042969 C 99.882812 49.167969 95.972656 51.152344 92.222656 53.9375 C 90.777344 55.011719 89.386719 56.191406 87.992188 57.476562 C 84.246094 61.011719 80.710938 65.40625 77.496094 70.550781 C 67.429688 86.789062 61.914062 108.441406 61.914062 131.644531 C 61.914062 154.792969 67.429688 176.5 77.496094 192.734375 C 77.710938 193.113281 77.925781 193.433594 78.140625 193.808594 C 78.621094 194.558594 79.105469 195.253906 79.585938 195.953125 C 79.851562 196.328125 80.121094 196.753906 80.441406 197.128906 C 80.765625 197.613281 81.085938 198.042969 81.460938 198.46875 C 81.566406 198.578125 81.675781 198.738281 81.726562 198.84375 C 81.996094 199.21875 82.261719 199.542969 82.585938 199.917969 C 82.636719 199.972656 82.691406 200.078125 82.746094 200.132812 C 82.960938 200.398438 83.171875 200.613281 83.386719 200.882812 C 83.761719 201.3125 84.136719 201.738281 84.511719 202.167969 C 84.621094 202.328125 84.726562 202.4375 84.886719 202.597656 C 85.15625 202.863281 85.367188 203.132812 85.636719 203.402344 C 85.957031 203.777344 86.28125 204.097656 86.652344 204.417969 C 86.652344 204.417969 86.707031 204.472656 86.707031 204.472656 C 87.082031 204.902344 87.511719 205.277344 87.9375 205.652344 C 88.046875 205.757812 88.152344 205.867188 88.261719 205.972656 C 90.9375 208.492188 93.777344 210.527344 96.667969 212.136719 C 98.007812 212.886719 99.292969 213.527344 100.628906 214.066406 C 104.324219 215.566406 108.128906 216.316406 111.984375 216.316406 C 117.339844 216.316406 122.640625 214.816406 127.621094 211.976562 C 129.066406 211.171875 130.457031 210.261719 131.796875 209.242188 C 136.082031 206.078125 140.097656 201.847656 143.792969 196.703125 C 144.703125 195.414062 145.613281 194.074219 146.46875 192.683594 C 147.058594 191.71875 147.648438 190.753906 148.183594 189.789062 C 157.125 173.925781 162.050781 153.402344 162.050781 131.589844 C 162.050781 114.121094 158.839844 97.347656 152.894531 83.199219 Z M 144.167969 188.71875 C 143.792969 189.359375 143.417969 190.003906 142.988281 190.644531 C 141.972656 192.308594 140.898438 193.863281 139.828125 195.308594 C 139.027344 196.433594 138.167969 197.503906 137.3125 198.46875 C 135.597656 200.507812 133.832031 202.328125 132.011719 203.9375 C 130.617188 205.167969 129.226562 206.242188 127.78125 207.207031 C 124.03125 209.722656 120.121094 211.332031 116.160156 212.027344 C 115.730469 212.082031 115.25 212.1875 114.820312 212.1875 C 113.910156 212.296875 113 212.351562 112.089844 212.351562 L 111.929688 212.351562 C 111.019531 212.351562 110.109375 212.296875 109.199219 212.1875 C 108.664062 212.136719 108.179688 212.082031 107.644531 211.976562 C 107.003906 211.867188 106.359375 211.761719 105.773438 211.601562 C 104.113281 211.171875 102.453125 210.582031 100.84375 209.832031 C 100.46875 209.671875 100.042969 209.457031 99.613281 209.242188 C 98.703125 208.757812 97.792969 208.277344 96.882812 207.6875 C 94.6875 206.292969 92.597656 204.632812 90.5625 202.703125 C 90.082031 202.222656 89.597656 201.738281 89.117188 201.257812 C 88.742188 200.882812 88.367188 200.453125 87.992188 200.078125 C 87.886719 199.972656 87.726562 199.808594 87.617188 199.648438 C 87.027344 199.007812 86.492188 198.363281 85.90625 197.667969 C 85.582031 197.292969 85.316406 196.917969 84.996094 196.542969 C 84.621094 196.058594 84.246094 195.578125 83.871094 195.039062 C 83.546875 194.613281 83.226562 194.128906 82.90625 193.648438 C 82.636719 193.273438 82.371094 192.898438 82.15625 192.523438 C 82.15625 192.46875 82.101562 192.414062 82.050781 192.414062 C 81.675781 191.878906 81.351562 191.289062 80.976562 190.753906 C 80.925781 190.644531 80.871094 190.539062 80.765625 190.433594 C 71.230469 174.785156 65.984375 153.992188 65.984375 131.699219 C 65.984375 109.296875 71.285156 88.34375 80.976562 72.75 C 83.121094 69.320312 85.367188 66.265625 87.726562 63.585938 C 89.117188 62.03125 90.511719 60.636719 92.007812 59.351562 C 93.777344 57.851562 95.542969 56.511719 97.363281 55.386719 C 97.363281 55.386719 97.417969 55.386719 97.417969 55.332031 C 98.113281 54.902344 98.863281 54.476562 99.613281 54.101562 C 100.953125 53.402344 102.34375 52.8125 103.738281 52.332031 C 105.074219 51.847656 106.46875 51.527344 107.859375 51.3125 C 109.253906 51.097656 110.589844 50.992188 111.984375 50.992188 C 112.945312 50.992188 113.910156 51.046875 114.875 51.152344 C 116.320312 51.3125 117.765625 51.632812 119.210938 52.0625 C 120.390625 52.382812 121.515625 52.8125 122.640625 53.347656 C 122.800781 53.402344 123.015625 53.511719 123.175781 53.5625 C 124.996094 54.367188 126.761719 55.4375 128.476562 56.671875 C 129.546875 57.421875 130.566406 58.226562 131.582031 59.082031 C 132.492188 59.832031 133.351562 60.691406 134.207031 61.546875 C 135.546875 62.886719 136.832031 64.335938 138.117188 65.890625 C 139.777344 67.980469 141.382812 70.285156 142.933594 72.75 C 145.078125 76.230469 147.003906 79.929688 148.71875 83.894531 C 150.058594 87.058594 151.289062 90.328125 152.359375 93.703125 C 153.269531 96.648438 154.074219 99.652344 154.769531 102.757812 C 155.519531 105.972656 156.109375 109.296875 156.589844 112.671875 C 157.449219 118.78125 157.875 125.160156 157.875 131.644531 C 157.875 149.222656 154.609375 165.886719 148.503906 179.820312 C 147.273438 182.984375 145.773438 185.929688 144.167969 188.71875 Z M 144.167969 188.71875 " fill-opacity="1" fill-rule="nonzero"/><path fill="#000000" d="M 114.875 216.316406 L 114.605469 216.316406 C 104.21875 215.03125 94.257812 206.667969 86.601562 192.734375 C 77.710938 176.550781 72.785156 154.902344 72.785156 131.75 C 72.785156 108.601562 77.65625 86.949219 86.601562 70.765625 C 94.257812 56.832031 104.21875 48.472656 114.605469 47.1875 L 114.875 47.1875 L 114.875 49.222656 L 115.144531 51.207031 C 106.09375 52.332031 97.257812 59.941406 90.242188 72.695312 C 81.675781 88.289062 76.960938 109.242188 76.960938 131.699219 C 76.960938 154.152344 81.675781 175.105469 90.242188 190.699219 C 97.257812 203.453125 106.09375 211.117188 115.144531 212.1875 L 114.875 214.171875 Z M 114.875 216.316406 " fill-opacity="1" fill-rule="nonzero"/><path fill="#000000" d="M 292.5 131.699219 C 292.5 132.929688 292.5 134.109375 292.445312 135.339844 C 292.394531 138.019531 292.285156 140.699219 292.070312 143.328125 C 290.894531 159.082031 287.359375 174.140625 281.628906 187.269531 C 281.09375 188.554688 280.503906 189.84375 279.863281 191.074219 C 278.898438 193.113281 277.828125 195.148438 276.757812 197.023438 C 270.382812 208.332031 262.40625 217.121094 253.410156 222.691406 C 247.839844 226.121094 242.003906 228.265625 236.003906 228.960938 C 234.398438 229.175781 232.792969 229.285156 231.1875 229.285156 C 230.328125 229.285156 229.472656 229.230469 228.617188 229.175781 C 228.507812 229.175781 228.453125 229.175781 228.347656 229.175781 L 228.453125 227.730469 L 228.617188 225.15625 C 229.472656 225.210938 230.328125 225.265625 231.132812 225.265625 C 237.613281 225.265625 243.984375 223.496094 250.035156 220.011719 C 250.410156 219.800781 250.839844 219.53125 251.214844 219.316406 C 251.265625 219.261719 251.320312 219.210938 251.425781 219.210938 C 253.996094 217.601562 256.460938 215.726562 258.871094 213.582031 C 263.476562 209.402344 267.652344 204.257812 271.402344 198.203125 C 272.097656 197.023438 272.792969 195.84375 273.488281 194.664062 C 273.972656 193.808594 274.453125 192.949219 274.882812 192.039062 C 275.203125 191.449219 275.523438 190.808594 275.847656 190.164062 C 276.542969 188.769531 277.183594 187.269531 277.882812 185.824219 C 283.398438 173.175781 286.824219 158.707031 287.949219 143.488281 C 288.003906 142.84375 288.054688 142.199219 288.109375 141.503906 C 288.214844 140.164062 288.269531 138.769531 288.324219 137.429688 C 288.324219 136.789062 288.378906 136.144531 288.378906 135.449219 C 288.429688 134.214844 288.429688 133.039062 288.429688 131.804688 C 288.429688 114.066406 285.378906 97.1875 279.917969 82.714844 C 279.808594 82.449219 279.703125 82.128906 279.59375 81.859375 C 279.488281 81.539062 279.328125 81.164062 279.167969 80.839844 C 278.898438 80.199219 278.632812 79.5 278.363281 78.859375 C 278.363281 78.804688 278.308594 78.75 278.308594 78.699219 C 277.988281 77.894531 277.613281 77.089844 277.238281 76.285156 C 272.097656 64.976562 265.402344 55.492188 257.371094 48.742188 C 257.316406 48.6875 257.210938 48.632812 257.15625 48.527344 C 252.765625 44.828125 248.160156 42.148438 243.394531 40.433594 C 239.484375 39.039062 235.46875 38.34375 231.347656 38.289062 L 231.238281 38.289062 C 229.632812 38.289062 228.027344 38.398438 226.472656 38.613281 L 226.367188 37.703125 L 226.207031 36.46875 L 225.9375 34.59375 C 226.042969 34.59375 226.207031 34.539062 226.3125 34.539062 C 227.917969 34.324219 229.578125 34.21875 231.238281 34.21875 C 232.84375 34.21875 234.453125 34.324219 236.058594 34.539062 C 244.359375 35.558594 252.5 39.253906 259.78125 45.417969 C 269.527344 53.5625 277.453125 65.460938 283.128906 79.714844 C 283.183594 79.824219 283.183594 79.875 283.234375 79.984375 C 283.609375 80.949219 283.984375 81.964844 284.359375 82.929688 C 284.46875 83.199219 284.574219 83.464844 284.628906 83.734375 C 289.664062 97.988281 292.5 114.496094 292.5 131.699219 Z M 292.5 131.699219 " fill-opacity="1" fill-rule="nonzero"/><path fill="#000000" d="M 309.527344 131.699219 C 309.527344 132.929688 309.527344 134.109375 309.476562 135.339844 C 309.476562 135.984375 309.421875 136.628906 309.421875 137.324219 C 309.367188 138.664062 309.316406 140.058594 309.207031 141.398438 C 309.15625 142.039062 309.101562 142.683594 309.046875 143.378906 C 307.921875 158.117188 304.601562 172.105469 299.410156 184.535156 C 298.980469 185.554688 298.550781 186.519531 298.125 187.484375 C 297.800781 188.128906 297.535156 188.824219 297.210938 189.46875 C 296.785156 190.378906 296.355469 191.234375 295.875 192.148438 C 295.390625 193.113281 294.855469 194.074219 294.320312 195.039062 C 294.265625 195.148438 294.214844 195.308594 294.105469 195.414062 C 292.339844 198.632812 290.359375 201.738281 288.324219 204.632812 C 288.164062 204.847656 288.003906 205.0625 287.839844 205.277344 C 287.789062 205.382812 287.734375 205.4375 287.628906 205.542969 C 274.667969 223.390625 257.640625 233.25 239.699219 233.25 C 233.96875 233.25 228.242188 232.230469 222.726562 230.25 C 222.5625 230.195312 222.402344 230.140625 222.242188 230.089844 L 223.6875 226.285156 C 225.296875 226.871094 226.847656 227.355469 228.453125 227.785156 C 229.6875 228.105469 230.917969 228.375 232.148438 228.585938 C 233.433594 228.800781 234.71875 228.960938 236.003906 229.070312 C 237.238281 229.175781 238.46875 229.230469 239.699219 229.230469 C 256.40625 229.230469 272.3125 219.90625 284.519531 202.917969 C 286.609375 200.078125 288.484375 197.023438 290.25 193.863281 C 291.214844 192.199219 292.070312 190.433594 292.929688 188.664062 C 299.410156 175.320312 303.53125 159.726562 304.871094 143.378906 C 305.085938 140.753906 305.246094 138.074219 305.300781 135.394531 C 305.300781 134.164062 305.351562 132.984375 305.351562 131.75 C 305.351562 115.78125 302.726562 100.667969 298.125 87.378906 C 298.015625 87.109375 297.960938 86.84375 297.855469 86.574219 C 297.535156 85.609375 297.160156 84.59375 296.785156 83.628906 C 296.730469 83.464844 296.625 83.253906 296.570312 83.089844 C 285.21875 53.9375 263.957031 34.324219 239.699219 34.324219 C 238.46875 34.324219 237.238281 34.378906 236.003906 34.484375 C 233.96875 34.648438 231.933594 34.96875 229.953125 35.398438 C 228.667969 35.664062 227.382812 36.039062 226.152344 36.414062 C 225.242188 36.683594 224.277344 37.003906 223.367188 37.378906 C 223.207031 37.433594 223.101562 37.488281 222.9375 37.539062 L 222.832031 37.324219 L 221.441406 33.734375 C 221.601562 33.683594 221.8125 33.574219 222.027344 33.519531 C 227.757812 31.324219 233.757812 30.253906 239.753906 30.253906 C 258.550781 30.253906 276.167969 40.917969 289.339844 60.261719 C 289.449219 60.421875 289.609375 60.636719 289.714844 60.796875 C 291.964844 64.121094 294 67.65625 295.875 71.300781 C 297.695312 74.839844 299.355469 78.589844 300.800781 82.394531 C 301.070312 83.089844 301.335938 83.789062 301.605469 84.484375 C 301.710938 84.699219 301.765625 84.914062 301.871094 85.183594 C 302.140625 85.878906 302.355469 86.628906 302.621094 87.324219 C 302.675781 87.539062 302.78125 87.808594 302.835938 88.023438 C 302.941406 88.289062 302.996094 88.558594 303.101562 88.878906 C 307.28125 102.167969 309.527344 116.691406 309.527344 131.699219 Z M 309.527344 131.699219 " fill-opacity="1" fill-rule="nonzero"/><path fill="#000000" d="M 203.285156 131.699219 C 203.285156 132.929688 203.285156 134.109375 203.234375 135.339844 C 203.179688 138.019531 203.070312 140.699219 202.859375 143.328125 C 201.519531 162.082031 196.96875 179.714844 189.683594 194.503906 C 188.828125 196.273438 187.863281 198.042969 186.898438 199.703125 C 186.257812 200.882812 185.5625 202.007812 184.863281 203.132812 C 181.917969 207.902344 178.707031 212.136719 175.332031 215.78125 C 174.957031 216.15625 174.636719 216.53125 174.261719 216.90625 C 173.03125 218.191406 171.796875 219.371094 170.566406 220.496094 C 170.460938 220.601562 170.351562 220.65625 170.246094 220.761719 C 161.410156 228.480469 151.503906 232.769531 141.167969 233.195312 C 140.632812 233.195312 140.097656 233.25 139.5625 233.25 C 131.742188 233.25 124.191406 231.054688 117.015625 226.765625 C 116.429688 226.390625 115.839844 226.070312 115.25 225.640625 C 114.875 225.371094 114.5 225.15625 114.125 224.890625 C 113.910156 224.730469 113.695312 224.621094 113.535156 224.460938 L 115.144531 222.210938 L 115.890625 221.140625 C 115.945312 221.191406 116.054688 221.246094 116.105469 221.300781 C 116.589844 221.621094 117.070312 221.996094 117.550781 222.316406 C 117.875 222.53125 118.195312 222.746094 118.515625 222.90625 C 119.105469 223.28125 119.75 223.65625 120.390625 223.980469 C 126.550781 227.410156 132.976562 229.175781 139.5625 229.175781 C 143.308594 229.175781 146.953125 228.585938 150.484375 227.515625 C 154.929688 226.175781 159.160156 224.03125 163.175781 221.140625 C 163.710938 220.761719 164.25 220.386719 164.785156 219.960938 C 164.945312 219.851562 165.050781 219.746094 165.210938 219.636719 C 166.015625 219.046875 166.765625 218.40625 167.515625 217.710938 C 168.105469 217.226562 168.640625 216.691406 169.226562 216.15625 C 169.601562 215.78125 170.03125 215.40625 170.40625 215.03125 C 174.851562 210.636719 178.921875 205.277344 182.507812 199.21875 C 183.152344 198.148438 183.792969 197.023438 184.382812 195.84375 C 184.703125 195.253906 185.027344 194.664062 185.292969 194.074219 C 185.667969 193.378906 185.988281 192.683594 186.363281 191.933594 C 193.003906 178.214844 197.394531 161.546875 198.734375 143.328125 C 198.789062 142.683594 198.839844 142.039062 198.894531 141.34375 C 199.003906 140.003906 199.054688 138.609375 199.109375 137.269531 C 199.109375 136.628906 199.164062 135.984375 199.164062 135.289062 C 199.214844 134.054688 199.214844 132.875 199.214844 131.644531 C 199.214844 113.636719 196.21875 96.703125 190.96875 82.179688 C 190.917969 82.019531 190.863281 81.859375 190.808594 81.699219 C 190.328125 80.359375 189.792969 79.019531 189.257812 77.679688 C 189.042969 77.144531 188.773438 76.554688 188.558594 76.019531 C 188.398438 75.589844 188.183594 75.214844 188.023438 74.785156 C 187.863281 74.464844 187.703125 74.089844 187.597656 73.765625 C 182.617188 62.78125 176.296875 53.5625 169.015625 46.8125 C 168.371094 46.222656 167.730469 45.632812 167.085938 45.097656 C 166.496094 44.613281 165.90625 44.078125 165.320312 43.648438 C 164.460938 43.007812 163.605469 42.363281 162.75 41.773438 C 162.480469 41.558594 162.214844 41.398438 161.890625 41.238281 C 161.410156 40.917969 160.929688 40.59375 160.445312 40.328125 C 155.574219 37.324219 150.324219 35.398438 144.96875 34.59375 C 143.203125 34.324219 141.4375 34.21875 139.667969 34.21875 C 133.082031 34.21875 126.65625 35.933594 120.550781 39.363281 C 120.550781 39.363281 120.496094 39.363281 120.496094 39.363281 C 119.535156 39.898438 118.625 40.433594 117.714844 41.078125 C 117.230469 41.398438 116.75 41.71875 116.265625 42.09375 C 116.214844 42.148438 116.105469 42.203125 116.054688 42.257812 L 115.035156 40.863281 L 113.695312 38.933594 C 113.910156 38.773438 114.125 38.664062 114.285156 38.503906 C 114.660156 38.238281 115.035156 37.96875 115.410156 37.753906 C 116.589844 36.949219 117.820312 36.253906 119.050781 35.558594 C 125.691406 31.96875 132.601562 30.144531 139.722656 30.144531 C 140.257812 30.144531 140.792969 30.144531 141.328125 30.199219 C 150.644531 30.574219 159.589844 34.058594 167.730469 40.378906 C 167.996094 40.59375 168.265625 40.808594 168.53125 41.023438 C 169.871094 42.09375 171.15625 43.222656 172.441406 44.453125 C 173.03125 45.042969 173.621094 45.632812 174.207031 46.222656 C 178.0625 50.1875 181.707031 54.902344 185.027344 60.261719 C 187.757812 64.65625 190.167969 69.371094 192.308594 74.355469 C 192.46875 74.785156 192.628906 75.160156 192.84375 75.589844 C 193.59375 77.410156 194.34375 79.285156 194.984375 81.164062 C 195.09375 81.375 195.148438 81.589844 195.199219 81.75 C 200.449219 96.863281 203.285156 113.960938 203.285156 131.699219 Z M 203.285156 131.699219 " fill-opacity="1" fill-rule="nonzero"/><path fill="#000000" d="M 225.027344 131.699219 C 225.027344 132.929688 225.027344 134.109375 224.972656 135.339844 C 224.972656 135.554688 224.972656 135.824219 224.972656 136.039062 C 224.972656 136.46875 224.972656 136.894531 224.921875 137.269531 C 224.867188 138.609375 224.8125 140.003906 224.707031 141.34375 C 224.707031 141.773438 224.652344 142.148438 224.597656 142.578125 C 224.597656 142.84375 224.546875 143.058594 224.546875 143.328125 C 223.152344 161.441406 218.601562 178.589844 211.265625 193.378906 C 210.890625 194.183594 210.460938 194.933594 210.085938 195.738281 C 209.820312 196.273438 209.496094 196.863281 209.175781 197.398438 C 208.425781 198.738281 207.675781 200.023438 206.925781 201.3125 C 205.804688 203.1875 204.625 204.953125 203.394531 206.722656 C 200.609375 210.742188 197.609375 214.386719 194.503906 217.710938 C 194.074219 218.136719 193.648438 218.621094 193.21875 219.046875 C 192.789062 219.476562 192.308594 219.960938 191.878906 220.386719 C 191.183594 221.03125 190.488281 221.675781 189.792969 222.316406 C 189.738281 222.371094 189.683594 222.371094 189.683594 222.425781 C 188.988281 223.015625 188.292969 223.605469 187.597656 224.195312 C 185.347656 226.015625 183.042969 227.675781 180.6875 229.175781 C 178.332031 230.675781 175.921875 231.964844 173.457031 233.089844 C 170.726562 234.320312 167.941406 235.394531 165.160156 236.144531 C 160.390625 237.484375 155.519531 238.179688 150.59375 238.179688 C 149.039062 238.179688 147.488281 238.125 145.933594 237.964844 C 135.757812 237.054688 125.851562 233.195312 116.804688 226.660156 C 116.320312 226.335938 115.890625 225.960938 115.410156 225.640625 C 115.089844 225.371094 114.714844 225.105469 114.394531 224.835938 C 114.179688 224.675781 113.964844 224.515625 113.75 224.355469 L 115.464844 222.265625 L 116.265625 221.300781 L 116.320312 221.191406 C 116.804688 221.566406 117.230469 221.941406 117.714844 222.265625 C 117.980469 222.476562 118.195312 222.640625 118.464844 222.800781 C 119 223.230469 119.585938 223.605469 120.121094 224.03125 C 122.640625 225.800781 125.265625 227.355469 127.886719 228.640625 C 129.816406 229.605469 131.742188 230.410156 133.671875 231.105469 C 136.027344 231.964844 138.382812 232.605469 140.792969 233.089844 C 140.953125 233.144531 141.113281 233.144531 141.222656 233.195312 C 144.273438 233.785156 147.378906 234.109375 150.484375 234.109375 C 162.480469 234.109375 173.78125 229.714844 183.6875 222.050781 C 185.078125 220.976562 186.472656 219.800781 187.808594 218.621094 C 188.238281 218.191406 188.667969 217.816406 189.148438 217.386719 C 194.023438 212.726562 198.464844 207.257812 202.375 201.097656 C 203.5 199.328125 204.570312 197.503906 205.589844 195.628906 C 213.675781 180.945312 219.03125 163.046875 220.527344 143.433594 C 220.527344 143.21875 220.582031 142.953125 220.582031 142.683594 C 220.691406 141.613281 220.742188 140.539062 220.796875 139.414062 C 220.851562 138.074219 220.902344 136.734375 220.957031 135.394531 C 221.011719 134.164062 221.011719 132.984375 221.011719 131.75 C 221.011719 116.050781 218.546875 101.203125 214.210938 87.914062 C 213.890625 86.949219 213.566406 86.039062 213.246094 85.128906 C 213.191406 84.914062 213.085938 84.699219 213.03125 84.484375 C 212.710938 83.574219 212.335938 82.609375 212.015625 81.75 C 211.855469 81.324219 211.695312 80.949219 211.53125 80.519531 C 211.371094 80.199219 211.265625 79.824219 211.105469 79.5 C 210.835938 78.859375 210.570312 78.160156 210.246094 77.519531 C 209.765625 76.445312 209.335938 75.375 208.800781 74.355469 C 208.75 74.304688 208.75 74.195312 208.695312 74.140625 C 208.535156 73.820312 208.425781 73.550781 208.265625 73.230469 C 204.195312 64.816406 199.324219 57.367188 193.753906 51.046875 C 192.84375 49.972656 191.878906 48.953125 190.917969 47.992188 C 189.898438 46.917969 188.828125 45.902344 187.757812 44.9375 C 187.113281 44.347656 186.417969 43.757812 185.773438 43.167969 C 184.277344 41.933594 182.777344 40.753906 181.222656 39.683594 C 180.957031 39.46875 180.632812 39.308594 180.367188 39.09375 C 171.261719 32.878906 161.140625 29.449219 150.484375 29.449219 C 147.378906 29.449219 144.328125 29.769531 141.273438 30.359375 C 140.953125 30.414062 140.632812 30.464844 140.257812 30.574219 C 137.957031 31.054688 135.652344 31.753906 133.351562 32.554688 C 133.351562 32.554688 133.351562 32.554688 133.296875 32.554688 C 128.746094 34.21875 124.300781 36.523438 120.070312 39.523438 C 119.960938 39.628906 119.800781 39.683594 119.695312 39.792969 C 119 40.273438 118.300781 40.753906 117.660156 41.292969 C 117.175781 41.667969 116.75 41.988281 116.265625 42.363281 L 116.214844 42.257812 L 115.144531 40.96875 L 113.695312 39.203125 C 113.910156 39.039062 114.125 38.878906 114.339844 38.71875 C 114.660156 38.453125 114.980469 38.183594 115.355469 37.914062 C 116.214844 37.273438 117.125 36.628906 117.980469 35.988281 C 124.996094 31.164062 132.546875 27.894531 140.257812 26.394531 C 140.257812 26.394531 140.257812 26.394531 140.3125 26.394531 C 143.683594 25.75 147.058594 25.375 150.484375 25.375 C 156.859375 25.375 163.070312 26.5 169.066406 28.699219 C 172.011719 29.769531 174.957031 31.109375 177.796875 32.71875 C 180.3125 34.109375 182.828125 35.773438 185.238281 37.59375 C 185.722656 37.96875 186.203125 38.34375 186.6875 38.71875 C 186.898438 38.878906 187.113281 39.09375 187.328125 39.253906 C 188.183594 39.953125 188.988281 40.648438 189.792969 41.34375 C 190.328125 41.828125 190.917969 42.363281 191.453125 42.847656 C 192.039062 43.433594 192.628906 43.972656 193.273438 44.613281 C 194.234375 45.578125 195.199219 46.597656 196.164062 47.667969 C 197.074219 48.6875 197.984375 49.707031 198.839844 50.777344 C 200.449219 52.707031 202 54.742188 203.5 56.941406 C 206.714844 61.601562 209.660156 66.640625 212.175781 71.945312 C 212.390625 72.320312 212.550781 72.75 212.765625 73.175781 C 212.871094 73.445312 212.980469 73.660156 213.085938 73.929688 C 213.085938 73.929688 213.085938 73.929688 213.085938 73.980469 C 213.40625 74.625 213.675781 75.269531 213.941406 75.964844 C 214.15625 76.445312 214.371094 76.984375 214.585938 77.464844 C 214.851562 78.109375 215.121094 78.699219 215.335938 79.339844 C 215.496094 79.714844 215.65625 80.089844 215.761719 80.464844 C 215.925781 80.839844 216.03125 81.214844 216.191406 81.589844 C 216.511719 82.503906 216.886719 83.46875 217.210938 84.378906 C 217.316406 84.59375 217.371094 84.859375 217.476562 85.074219 C 217.796875 85.984375 218.121094 86.949219 218.386719 87.859375 C 222.726562 101.257812 225.027344 116.265625 225.027344 131.699219 Z M 225.027344 131.699219 " fill-opacity="1" fill-rule="nonzero"/><path fill="#000000" d="M 252.980469 222.800781 L 253.035156 222.960938 C 246.5 225.15625 239.484375 227.035156 232.203125 228.535156 C 231.132812 228.75 230.007812 228.960938 228.9375 229.175781 C 228.882812 229.175781 228.777344 229.230469 228.667969 229.230469 C 226.847656 229.550781 225.027344 229.875 223.3125 230.140625 C 223.152344 230.140625 222.992188 230.195312 222.777344 230.195312 C 210.300781 232.179688 196.804688 233.195312 182.667969 233.195312 C 179.617188 233.195312 176.566406 233.144531 173.40625 233.035156 C 173.246094 233.035156 173.082031 233.035156 172.921875 233.035156 L 173.03125 228.960938 C 175.601562 229.015625 178.117188 229.070312 180.6875 229.125 C 195.574219 229.230469 209.660156 228.210938 222.671875 226.121094 C 224.4375 225.855469 226.3125 225.53125 228.1875 225.15625 C 234.453125 223.980469 240.503906 222.53125 246.285156 220.761719 C 248.054688 220.226562 249.820312 219.691406 251.480469 219.101562 C 251.535156 219.101562 251.640625 219.046875 251.695312 219.046875 L 252.015625 218.941406 L 252.339844 218.941406 L 252.339844 220.976562 L 253.785156 222.425781 Z M 252.980469 222.800781 " fill-opacity="1" fill-rule="nonzero"/><path fill="#000000" d="M 298.765625 196.488281 C 295.554688 199.488281 292.125 202.273438 288.539062 204.902344 C 288.269531 205.117188 288.003906 205.328125 287.679688 205.492188 L 287.414062 205.703125 L 286.234375 204.042969 L 284.789062 202.597656 L 284.894531 202.488281 L 285.058594 202.382812 C 288.324219 200.078125 291.429688 197.613281 294.375 194.988281 C 294.910156 194.503906 295.5 194.023438 296.035156 193.488281 Z M 298.765625 196.488281 " fill-opacity="1" fill-rule="nonzero"/><path fill="#000000" d="M 150.96875 227.570312 L 150.59375 231.640625 C 141.972656 230.785156 134.261719 229.714844 127.886719 228.695312 C 123.925781 228.050781 120.496094 227.410156 117.660156 226.871094 L 117.390625 226.820312 C 117.339844 226.820312 117.285156 226.820312 117.230469 226.765625 L 117.175781 226.765625 C 117.175781 226.765625 117.125 226.765625 117.125 226.765625 C 117.015625 226.765625 116.855469 226.710938 116.75 226.710938 C 111.554688 225.695312 108.609375 224.945312 108.503906 224.890625 L 108.503906 224.78125 L 109.464844 220.925781 C 109.464844 220.925781 111.554688 221.460938 115.195312 222.210938 C 115.25 222.210938 115.355469 222.210938 115.410156 222.265625 C 116.160156 222.425781 117.015625 222.585938 117.925781 222.800781 C 117.980469 222.800781 118.089844 222.800781 118.140625 222.855469 L 118.195312 222.855469 C 118.25 222.855469 118.300781 222.855469 118.355469 222.90625 C 118.410156 222.90625 118.464844 222.90625 118.570312 222.960938 C 119.640625 223.175781 120.871094 223.390625 122.105469 223.605469 C 129.171875 224.890625 138.972656 226.445312 150.539062 227.570312 C 150.699219 227.570312 150.808594 227.570312 150.96875 227.570312 Z M 150.96875 227.570312 " fill-opacity="1" fill-rule="nonzero"/><path fill="#000000" d="M 159.375 82.929688 L 158.519531 78.964844 C 169.175781 76.660156 179.832031 74.839844 190.328125 73.550781 L 190.808594 77.570312 C 180.421875 78.859375 169.871094 80.679688 159.375 82.929688 Z M 159.375 82.929688 " fill-opacity="1" fill-rule="nonzero"/><path fill="#000000" d="M 308.726562 89.898438 C 308.671875 89.898438 305.191406 88.183594 298.605469 85.984375 L 299.890625 82.128906 C 306.746094 84.429688 310.386719 86.144531 310.492188 86.253906 Z M 308.726562 89.898438 " fill-opacity="1" fill-rule="nonzero"/><path fill="#000000" d="M 280.183594 80.949219 C 258.765625 76.230469 235.46875 74.515625 210.945312 75.855469 L 210.730469 71.785156 C 235.628906 70.445312 259.246094 72.160156 281.039062 76.984375 Z M 280.183594 80.949219 " fill-opacity="1" fill-rule="nonzero"/><path fill="#000000" d="M 257.371094 48.578125 C 238.253906 41.558594 213.835938 39.148438 184.703125 41.558594 L 184.382812 37.488281 C 214.101562 35.074219 239.109375 37.539062 258.816406 44.773438 Z M 257.371094 48.578125 " fill-opacity="1" fill-rule="nonzero"/><path fill="#000000" d="M 134.6875 49.8125 L 133.617188 45.902344 C 133.726562 45.847656 146.84375 42.308594 165.535156 39.628906 L 166.121094 43.648438 C 147.703125 46.277344 134.796875 49.757812 134.6875 49.8125 Z M 134.6875 49.8125 " fill-opacity="1" fill-rule="nonzero"/><path fill="#000000" d="M 222.777344 137.324219 L 290.25 137.324219 L 290.25 141.398438 L 222.777344 141.398438 Z M 222.777344 137.324219 " fill-opacity="1" fill-rule="nonzero"/><path fill="#000000" d="M 307.28125 137.324219 L 319.167969 137.324219 L 319.167969 141.398438 L 307.28125 141.398438 Z M 307.28125 137.324219 " fill-opacity="1" fill-rule="nonzero"/><path fill="#000000" d="M 168.480469 137.324219 L 201.089844 137.324219 L 201.089844 141.398438 L 168.480469 141.398438 Z M 168.480469 137.324219 " fill-opacity="1" fill-rule="nonzero"/><path fill="#000000" d="M 296.25 189.734375 L 295.125 185.824219 C 298.390625 184.914062 301.605469 183.839844 304.601562 182.769531 L 305.996094 186.574219 C 302.941406 187.699219 299.675781 188.769531 296.25 189.734375 Z M 296.25 189.734375 " fill-opacity="1" fill-rule="nonzero"/><path fill="#000000" d="M 226.207031 197.71875 C 220.261719 197.71875 214.15625 197.613281 207.890625 197.34375 L 208.050781 193.273438 C 234.292969 194.289062 257.480469 193.164062 276.863281 189.84375 L 277.558594 193.863281 C 262.566406 196.433594 245.324219 197.71875 226.207031 197.71875 Z M 226.207031 197.71875 " fill-opacity="1" fill-rule="nonzero"/><path fill="#000000" d="M 187.488281 196.164062 C 168.265625 194.664062 154.984375 192.574219 154.824219 192.574219 L 155.464844 188.554688 C 155.574219 188.554688 168.746094 190.644531 187.808594 192.148438 Z M 187.488281 196.164062 " fill-opacity="1" fill-rule="nonzero"/><path fill="#000000" d="M 205.265625 224.835938 C 199.164062 224.835938 193.003906 224.570312 186.6875 224.085938 L 187.007812 220.011719 C 213.085938 221.996094 237.449219 219.800781 259.351562 213.367188 L 260.476562 217.28125 C 243.449219 222.316406 224.921875 224.835938 205.265625 224.835938 Z M 205.265625 224.835938 " fill-opacity="1" fill-rule="nonzero"/><path fill="#000000" d="M 167.890625 221.941406 C 149.253906 219.101562 137.367188 215.242188 136.882812 215.082031 L 138.167969 211.226562 C 138.277344 211.277344 150.273438 215.191406 168.53125 217.976562 Z M 167.890625 221.941406 " fill-opacity="1" fill-rule="nonzero"/><path fill="#000000" d="M 122.691406 53.402344 C 122.691406 53.402344 111.5 49.0625 102.503906 57.046875 L 98.273438 57.691406 C 98.273438 57.691406 78.996094 78.535156 75.570312 112.136719 C 72.140625 145.738281 83.066406 203.027344 111.984375 213.367188 C 111.984375 213.367188 96.132812 214.976562 79.851562 193.808594 C 63.574219 172.640625 61.539062 118.03125 67.859375 98.6875 C 74.175781 79.339844 92.8125 34.433594 122.691406 53.402344 Z M 122.691406 53.402344 " fill-opacity="1" fill-rule="nonzero"/><path fill="#000000" d="M 92.222656 53.992188 L 92.007812 59.40625 L 85.90625 197.613281 L 85.636719 203.507812 C 84.296875 202.113281 83.011719 200.558594 81.78125 198.953125 L 82.050781 192.359375 L 87.726562 63.691406 L 87.992188 57.582031 C 89.386719 56.242188 90.777344 55.0625 92.222656 53.992188 Z M 92.222656 53.992188 " fill-opacity="1" fill-rule="nonzero"/><path fill="#000000" d="M 108.019531 47.9375 L 107.859375 51.421875 L 100.84375 209.832031 L 100.628906 214.171875 C 99.292969 213.636719 97.953125 212.992188 96.667969 212.242188 L 96.882812 207.632812 L 103.738281 52.4375 L 103.949219 48.097656 C 104.324219 47.992188 104.753906 47.882812 105.128906 47.777344 Z M 108.019531 47.9375 " fill-opacity="1" fill-rule="nonzero"/><path fill="#000000" d="M 123.441406 49.277344 L 123.230469 53.617188 L 116.214844 211.976562 L 116.054688 215.136719 L 111.984375 214.976562 L 112.089844 212.351562 L 119.160156 52.117188 L 119.320312 47.9375 C 120.765625 48.3125 122.105469 48.742188 123.441406 49.277344 Z M 123.441406 49.277344 " fill-opacity="1" fill-rule="nonzero"/><path fill="#000000" d="M 138.4375 60.046875 L 138.167969 65.941406 L 132.066406 203.9375 L 131.851562 209.347656 C 130.457031 210.367188 129.066406 211.277344 127.671875 212.082031 L 127.886719 207.152344 L 134.3125 61.546875 L 134.527344 56.191406 C 135.867188 57.421875 137.152344 58.65625 138.4375 60.046875 Z M 138.4375 60.046875 " fill-opacity="1" fill-rule="nonzero"/><path fill="#000000" d="M 152.894531 83.199219 L 152.414062 93.757812 L 148.613281 179.875 L 148.183594 189.894531 C 147.648438 190.859375 147.058594 191.824219 146.46875 192.789062 C 145.613281 194.183594 144.703125 195.523438 143.792969 196.808594 L 144.167969 188.71875 L 148.824219 83.949219 L 149.199219 75.375 C 150.484375 77.894531 151.769531 80.519531 152.894531 83.199219 Z M 152.894531 83.199219 " fill-opacity="1" fill-rule="nonzero"/><path fill="#c99a5b" d="M 103.949219 193.808594 C 103.949219 193.808594 91.582031 194.558594 86.226562 205.4375 L 75.25 204.953125 C 75.25 204.953125 80.925781 186.839844 96.347656 182.339844 L 96.882812 169.800781 C 96.882812 169.800781 102.128906 172.050781 106.039062 170.175781 L 105.609375 180.785156 C 105.609375 180.785156 113.269531 186.359375 103.949219 193.808594 Z M 103.949219 193.808594 " fill-opacity="1" fill-rule="nonzero"/><path fill="#000000" d="M 88.046875 206.507812 L 84.78125 204.847656 C 90.832031 192.898438 102.398438 191.878906 103.46875 191.824219 C 103.789062 191.773438 105.34375 191.609375 106.253906 191.558594 L 106.519531 195.203125 C 105.609375 195.253906 103.84375 195.46875 103.84375 195.46875 C 103.789062 195.46875 103.789062 195.46875 103.738281 195.46875 C 103.253906 195.523438 93.242188 196.21875 88.046875 206.507812 Z M 88.046875 206.507812 " fill-opacity="1" fill-rule="nonzero"/><path fill="#000000" d="M 76.855469 205.757812 L 73.320312 204.6875 C 75.355469 197.828125 78.515625 192.308594 82.636719 188.289062 C 88.207031 182.875 95.382812 180.355469 104.113281 180.730469 L 106.84375 180.839844 L 106.683594 184.484375 L 104.003906 184.375 C 87.027344 183.625 79.90625 195.578125 76.855469 205.757812 Z M 76.855469 205.757812 " fill-opacity="1" fill-rule="nonzero"/><path fill="#000000" d="M 104.488281 196.433594 C 103.363281 196.378906 102.289062 195.953125 101.378906 195.148438 L 103.789062 192.414062 C 104.058594 192.683594 104.324219 192.789062 104.59375 192.789062 C 105.71875 192.84375 107.484375 190.59375 107.644531 186.949219 C 107.804688 183.304688 106.253906 180.945312 105.128906 180.894531 C 104.378906 180.839844 103.414062 181.804688 102.828125 183.25 L 99.453125 181.804688 C 100.738281 178.804688 102.878906 177.089844 105.289062 177.195312 C 108.929688 177.355469 111.554688 181.695312 111.339844 187.109375 C 111.125 192.523438 108.128906 196.59375 104.488281 196.433594 Z M 104.488281 196.433594 " fill-opacity="1" fill-rule="nonzero"/><path fill="#000000" d="M 103.949219 196.433594 C 102.933594 196.378906 101.914062 195.953125 101.113281 195.148438 L 103.683594 192.523438 C 103.789062 192.628906 104.003906 192.789062 104.164062 192.789062 C 104.914062 192.84375 106.519531 190.59375 106.683594 186.949219 C 106.84375 183.304688 105.449219 180.945312 104.699219 180.894531 C 104.324219 180.894531 103.523438 181.589844 102.878906 183.195312 L 99.453125 181.910156 C 100.578125 178.855469 102.613281 177.140625 104.859375 177.195312 C 107.378906 177.300781 109.359375 179.714844 110.054688 183.25 C 110.269531 184.429688 110.375 185.714844 110.324219 187.109375 C 110.003906 192.574219 107.324219 196.59375 103.949219 196.433594 Z M 103.949219 196.433594 " fill-opacity="1" fill-rule="nonzero"/><path fill="#000000" d="M 80.960938 202.945312 C 81.441406 202.992188 81.917969 203.058594 82.390625 203.140625 C 82.859375 203.222656 83.3125 203.324219 83.753906 203.4375 C 84.191406 203.550781 84.605469 203.679688 85 203.820312 C 85.390625 203.964844 85.75 204.117188 86.078125 204.277344 C 86.40625 204.441406 86.695312 204.613281 86.949219 204.789062 C 87.203125 204.96875 87.414062 205.152344 87.582031 205.339844 C 87.75 205.523438 87.871094 205.710938 87.949219 205.902344 C 88.023438 206.089844 88.054688 206.273438 88.035156 206.457031 C 88.015625 206.636719 87.949219 206.8125 87.839844 206.980469 C 87.726562 207.152344 87.570312 207.3125 87.367188 207.460938 C 87.167969 207.609375 86.925781 207.746094 86.640625 207.871094 C 86.355469 207.996094 86.039062 208.105469 85.683594 208.199219 C 85.328125 208.292969 84.945312 208.371094 84.535156 208.433594 C 84.125 208.492188 83.691406 208.535156 83.238281 208.5625 C 82.785156 208.585938 82.320312 208.59375 81.84375 208.578125 C 81.367188 208.566406 80.886719 208.539062 80.402344 208.488281 C 79.921875 208.441406 79.445312 208.375 78.972656 208.292969 C 78.503906 208.207031 78.050781 208.109375 77.609375 207.996094 C 77.171875 207.878906 76.757812 207.753906 76.363281 207.609375 C 75.972656 207.46875 75.613281 207.316406 75.285156 207.152344 C 74.957031 206.992188 74.667969 206.820312 74.414062 206.640625 C 74.160156 206.464844 73.949219 206.28125 73.78125 206.09375 C 73.613281 205.90625 73.492188 205.71875 73.414062 205.53125 C 73.339844 205.34375 73.308594 205.160156 73.328125 204.976562 C 73.347656 204.792969 73.410156 204.617188 73.523438 204.449219 C 73.636719 204.28125 73.792969 204.121094 73.996094 203.972656 C 74.195312 203.824219 74.4375 203.683594 74.722656 203.5625 C 75.003906 203.4375 75.324219 203.328125 75.679688 203.234375 C 76.035156 203.136719 76.417969 203.0625 76.828125 203 C 77.238281 202.9375 77.671875 202.894531 78.125 202.871094 C 78.578125 202.847656 79.042969 202.839844 79.519531 202.851562 C 79.996094 202.863281 80.476562 202.894531 80.960938 202.945312 Z M 80.960938 202.945312 " fill-opacity="1" fill-rule="nonzero"/><path fill="#000000" d="M 96.292969 184.375 C 95.167969 184.324219 94.3125 183.359375 94.367188 182.234375 L 94.953125 168.136719 C 95.007812 167.011719 95.972656 166.15625 97.097656 166.210938 L 106.253906 166.585938 C 107.378906 166.636719 108.234375 167.601562 108.179688 168.726562 L 107.753906 178.855469 C 107.699219 179.980469 106.734375 180.839844 105.609375 180.785156 C 104.488281 180.730469 103.628906 179.765625 103.683594 178.640625 L 104.058594 170.550781 L 98.972656 170.335938 L 98.433594 182.394531 C 98.328125 183.574219 97.417969 184.429688 96.292969 184.375 Z M 96.292969 184.375 " fill-opacity="1" fill-rule="nonzero"/><path fill="#000000" d="M 101.378906 172.371094 C 97.417969 172.210938 94.847656 170.496094 94.953125 168.136719 C 95.0625 165.78125 97.792969 164.332031 101.753906 164.496094 C 105.71875 164.65625 108.289062 166.371094 108.179688 168.726562 C 108.074219 171.085938 105.34375 172.53125 101.378906 172.371094 Z M 101.378906 172.371094 " fill-opacity="1" fill-rule="nonzero"/><path fill="#000000" d="M 85.261719 203.882812 C 85.261719 203.882812 89.226562 191.71875 104.808594 190.058594 C 104.808594 190.058594 106.46875 189.304688 106.574219 186.894531 C 106.683594 184.484375 108.34375 185.554688 108.394531 187.644531 C 108.449219 189.734375 107.109375 194.34375 102.289062 194.71875 C 97.472656 195.09375 88.902344 200.078125 87.511719 203.1875 C 86.117188 206.292969 85.261719 203.882812 85.261719 203.882812 Z M 85.261719 203.882812 " fill-opacity="1" fill-rule="nonzero"/><path fill="#000000" d="M 106.574219 185.824219 C 106.574219 185.824219 106.519531 184.484375 104.433594 184.429688 C 102.34375 184.375 99.882812 181 103.683594 181.804688 C 107.539062 182.609375 108.609375 182.234375 106.574219 185.824219 Z M 106.574219 185.824219 " fill-opacity="1" fill-rule="nonzero"/><path fill="#000000" d="M 81.136719 204.578125 C 81.136719 204.578125 83.761719 192.574219 96.398438 187.269531 C 96.398438 187.269531 83.761719 188.554688 78.835938 204.6875 Z M 81.136719 204.578125 " fill-opacity="1" fill-rule="nonzero"/><path fill="#000000" d="M 100.257812 171.730469 L 99.71875 178 L 98.433594 172.371094 L 98.757812 170.816406 Z M 100.257812 171.730469 " fill-opacity="1" fill-rule="nonzero"/><path fill="#c99a5b" d="M 101.621094 167.316406 C 102.085938 167.335938 102.535156 167.382812 102.96875 167.457031 C 103.398438 167.535156 103.773438 167.632812 104.101562 167.75 C 104.429688 167.871094 104.679688 168.003906 104.851562 168.148438 C 105.023438 168.296875 105.109375 168.441406 105.101562 168.589844 C 105.09375 168.742188 105 168.878906 104.816406 169.011719 C 104.628906 169.140625 104.371094 169.25 104.035156 169.34375 C 103.699219 169.433594 103.3125 169.496094 102.878906 169.535156 C 102.441406 169.574219 101.992188 169.582031 101.523438 169.5625 C 101.054688 169.542969 100.605469 169.496094 100.175781 169.421875 C 99.746094 169.34375 99.367188 169.246094 99.039062 169.128906 C 98.714844 169.007812 98.464844 168.875 98.289062 168.730469 C 98.117188 168.582031 98.035156 168.4375 98.039062 168.289062 C 98.046875 168.136719 98.140625 168 98.328125 167.867188 C 98.511719 167.738281 98.773438 167.628906 99.109375 167.535156 C 99.445312 167.445312 99.828125 167.382812 100.265625 167.34375 C 100.699219 167.304688 101.152344 167.296875 101.621094 167.316406 Z M 101.621094 167.316406 " fill-opacity="1" fill-rule="nonzero"/><path fill="#000000" d="M 203.285156 136.09375 C 203.234375 138.289062 203.125 140.484375 202.910156 142.628906 L 168.480469 142.628906 L 168.480469 136.09375 Z M 203.285156 136.09375 " fill-opacity="1" fill-rule="nonzero"/><path fill="#000000" d="M 292.445312 136.09375 C 292.394531 138.289062 292.285156 140.484375 292.070312 142.628906 L 220.527344 142.628906 C 220.742188 140.484375 220.851562 138.289062 220.957031 136.09375 Z M 292.445312 136.09375 " fill-opacity="1" fill-rule="nonzero"/><path fill="#000000" d="M 319.167969 136.09375 L 319.167969 142.628906 L 304.976562 142.628906 C 305.191406 140.433594 305.351562 138.289062 305.40625 136.09375 Z M 319.167969 136.09375 " fill-opacity="1" fill-rule="nonzero"/><path fill="#000000" d="M 187.648438 194.34375 C 188.34375 194.398438 189.042969 194.449219 189.738281 194.558594 C 188.882812 196.328125 187.917969 198.09375 186.953125 199.757812 C 185.453125 199.597656 183.953125 199.433594 182.5625 199.273438 C 169.175781 197.773438 159.269531 195.953125 154.984375 195.09375 C 153.484375 194.828125 152.679688 194.613281 152.679688 194.613281 L 155.304688 189.734375 C 156.109375 189.894531 156.859375 190.058594 157.660156 190.164062 C 167.140625 191.933594 176.457031 193.21875 185.402344 194.074219 C 186.148438 194.183594 186.898438 194.238281 187.648438 194.34375 Z M 187.648438 194.34375 " fill-opacity="1" fill-rule="nonzero"/><path fill="#000000" d="M 277.183594 191.558594 C 278.09375 191.394531 279.003906 191.289062 279.863281 191.128906 C 278.898438 193.164062 277.828125 195.203125 276.757812 197.078125 C 274.988281 197.453125 273.222656 197.773438 271.457031 198.09375 C 249.339844 201.953125 226.582031 202.328125 206.925781 201.3125 C 205.375 201.203125 203.820312 201.148438 202.269531 201.042969 C 203.394531 199.273438 204.464844 197.453125 205.480469 195.578125 C 206.285156 195.628906 207.140625 195.628906 207.945312 195.683594 C 208.640625 195.683594 209.335938 195.738281 210.035156 195.738281 C 236.003906 196.542969 258.335938 194.449219 274.882812 191.933594 C 275.6875 191.824219 276.433594 191.664062 277.183594 191.558594 Z M 277.183594 191.558594 " fill-opacity="1" fill-rule="nonzero"/><path fill="#000000" d="M 305.671875 185.5 L 304.976562 186.949219 L 303.800781 189.304688 C 301.816406 190.058594 299.835938 190.808594 297.855469 191.449219 C 297.210938 191.664062 296.570312 191.878906 295.925781 192.09375 C 294.105469 192.683594 292.234375 193.273438 290.359375 193.753906 C 291.324219 192.09375 292.179688 190.324219 293.035156 188.554688 C 294 188.34375 294.910156 188.128906 295.820312 187.964844 C 296.625 187.804688 297.425781 187.589844 298.125 187.429688 C 299.460938 187.109375 300.640625 186.839844 301.605469 186.574219 C 304.28125 185.929688 305.671875 185.5 305.671875 185.5 Z M 305.671875 185.5 " fill-opacity="1" fill-rule="nonzero"/><path fill="#000000" d="M 168.425781 41.078125 C 169.765625 42.148438 171.050781 43.273438 172.335938 44.507812 C 170.511719 44.722656 168.746094 44.988281 167.03125 45.203125 C 154.234375 47.078125 144.648438 49.277344 140.578125 50.242188 C 139.1875 50.5625 138.4375 50.777344 138.4375 50.777344 L 136.9375 49.167969 L 135.011719 47.078125 C 135.4375 46.972656 135.867188 46.863281 136.347656 46.757812 C 145.34375 44.722656 154.234375 43.058594 162.75 41.773438 C 163.765625 41.613281 164.785156 41.453125 165.800781 41.34375 C 166.65625 41.292969 167.566406 41.183594 168.425781 41.078125 Z M 168.425781 41.078125 " fill-opacity="1" fill-rule="nonzero"/><path fill="#000000" d="M 261.386719 49.8125 C 260.15625 49.4375 258.925781 49.007812 257.691406 48.6875 C 257.585938 48.632812 257.480469 48.632812 257.371094 48.578125 C 257.316406 48.578125 257.316406 48.578125 257.265625 48.527344 C 257.15625 48.472656 256.996094 48.472656 256.890625 48.417969 C 256.78125 48.367188 256.675781 48.367188 256.621094 48.3125 C 235.148438 42.203125 211.746094 41.398438 191.453125 42.683594 C 189.523438 42.792969 187.597656 42.953125 185.722656 43.113281 C 184.222656 41.882812 182.722656 40.703125 181.171875 39.628906 C 182.292969 39.523438 183.367188 39.417969 184.488281 39.308594 C 185.402344 39.203125 186.363281 39.148438 187.273438 39.09375 C 203.929688 37.808594 218.226562 37.96875 228.402344 39.148438 C 229.632812 39.308594 230.757812 39.417969 231.882812 39.628906 C 241.359375 41.078125 248.75 43.648438 253.785156 45.847656 C 255.335938 46.488281 256.621094 47.132812 257.691406 47.722656 C 257.800781 47.777344 257.90625 47.828125 258.015625 47.882812 C 260.15625 48.953125 261.28125 49.707031 261.386719 49.8125 Z M 261.386719 49.8125 " fill-opacity="1" fill-rule="nonzero"/><path fill="#000000" d="M 169.335938 216.207031 C 170.941406 216.476562 172.601562 216.746094 174.367188 216.957031 C 173.136719 218.246094 171.90625 219.425781 170.675781 220.550781 C 170.566406 220.65625 170.460938 220.710938 170.351562 220.816406 C 169.601562 220.710938 168.90625 220.601562 168.15625 220.496094 C 167.085938 220.335938 166.015625 220.175781 164.945312 220.011719 C 157.074219 218.671875 149.039062 216.746094 139.667969 214.066406 C 138.917969 213.851562 138.222656 213.636719 137.472656 213.421875 L 139.347656 211.546875 L 140.792969 210.097656 C 140.792969 210.097656 141.648438 210.367188 143.203125 210.742188 C 147.328125 211.867188 156.804688 214.226562 169.335938 216.207031 Z M 169.335938 216.207031 " fill-opacity="1" fill-rule="nonzero"/><path fill="#000000" d="M 262.246094 212.136719 C 262.246094 212.136719 261.546875 212.886719 259.566406 214.011719 C 258.816406 214.441406 257.90625 214.867188 256.78125 215.351562 C 250.945312 217.871094 239.484375 221.140625 218.28125 221.890625 C 207.195312 222.316406 198.039062 222.476562 189.792969 222.265625 C 188.828125 222.210938 187.863281 222.210938 186.898438 222.15625 C 185.828125 222.101562 184.757812 222.050781 183.6875 221.996094 C 183.6875 221.996094 183.6875 221.996094 183.742188 221.996094 C 185.132812 220.925781 186.523438 219.746094 187.808594 218.566406 C 189.578125 218.726562 191.398438 218.886719 193.273438 219.046875 C 213.996094 220.601562 237.933594 219.90625 259.460938 213.046875 C 260.371094 212.726562 261.28125 212.457031 262.246094 212.136719 Z M 262.246094 212.136719 " fill-opacity="1" fill-rule="nonzero"/><path fill="#000000" d="M 140.257812 26.285156 C 140.257812 26.285156 184.972656 13.800781 213.941406 68.570312 C 242.914062 123.335938 229.6875 240.003906 145.828125 237.964844 L 142.558594 235.339844 C 142.558594 235.339844 180.421875 244.234375 208.910156 193.808594 C 237.398438 143.378906 216.40625 89.253906 210.890625 74.410156 C 205.375 59.566406 183.6875 25.375 140.257812 26.285156 Z M 140.257812 26.285156 " fill-opacity="1" fill-rule="nonzero"/><path fill="#000000" d="M 205.214844 131 C 205.214844 131 205.214844 217.761719 151.71875 231.429688 C 151.71875 231.429688 151.71875 231.429688 151.664062 231.429688 C 148.238281 232.285156 144.59375 232.875 140.738281 233.089844 C 139.988281 233.144531 139.1875 233.144531 138.382812 233.195312 L 133.5625 231.105469 C 133.832031 231.105469 137.152344 231.429688 142.1875 230.679688 C 144.703125 230.300781 147.59375 229.714844 150.753906 228.695312 C 155.25 227.246094 160.285156 224.996094 165.320312 221.515625 C 165.855469 221.140625 166.445312 220.761719 166.980469 220.335938 C 167.40625 220.011719 167.78125 219.746094 168.15625 219.425781 C 169.28125 218.566406 170.40625 217.601562 171.53125 216.582031 C 176.191406 212.296875 180.742188 206.722656 184.757812 199.542969 C 185.402344 198.417969 185.988281 197.292969 186.578125 196.113281 C 186.847656 195.523438 187.167969 194.933594 187.433594 194.34375 C 187.488281 194.238281 187.542969 194.183594 187.542969 194.074219 C 189.042969 190.914062 190.433594 187.484375 191.664062 183.734375 C 196.699219 168.941406 199.164062 155.117188 200.125 142.628906 C 200.179688 142.199219 200.179688 141.824219 200.234375 141.398438 C 200.339844 140.003906 200.394531 138.664062 200.449219 137.324219 C 200.449219 136.894531 200.5 136.46875 200.5 136.09375 C 201.304688 113.316406 197.074219 95.792969 194.71875 86.683594 C 194.449219 85.71875 194.234375 84.859375 194.074219 84.109375 C 193.859375 83.359375 193.699219 82.664062 193.539062 82.074219 C 193.488281 81.859375 193.433594 81.644531 193.378906 81.375 C 193.164062 80.679688 192.898438 79.875 192.574219 78.964844 C 192.308594 78.214844 191.933594 77.359375 191.558594 76.5 C 191.453125 76.230469 191.34375 76.019531 191.238281 75.75 C 190.96875 75.105469 190.648438 74.464844 190.328125 73.820312 C 190.273438 73.714844 190.21875 73.660156 190.167969 73.550781 C 187.167969 67.550781 182.402344 59.886719 176.351562 52.8125 C 175.492188 51.796875 174.636719 50.832031 173.726562 49.867188 C 172.171875 48.152344 170.511719 46.488281 168.746094 44.9375 C 167.835938 44.078125 166.871094 43.273438 165.910156 42.46875 C 165.480469 42.148438 165.105469 41.828125 164.675781 41.507812 C 163.980469 40.96875 163.285156 40.433594 162.589844 39.953125 C 157.125 36.09375 151.183594 33.359375 144.863281 32.554688 C 144.488281 32.503906 144.113281 32.449219 143.738281 32.449219 L 141.273438 31.003906 L 140.203125 30.359375 C 140.3125 30.359375 141.542969 30.359375 143.632812 30.628906 C 143.953125 30.679688 144.273438 30.734375 144.59375 30.789062 C 148.613281 31.378906 155.039062 32.933594 162.214844 36.683594 C 167.460938 39.46875 173.136719 43.433594 178.597656 49.117188 C 179.511719 50.082031 180.421875 51.046875 181.277344 52.117188 C 186.472656 58.226562 191.289062 65.996094 195.253906 75.964844 C 195.574219 76.820312 195.894531 77.679688 196.21875 78.535156 C 196.804688 80.089844 197.34375 81.699219 197.878906 83.359375 C 198.199219 84.269531 198.464844 85.234375 198.734375 86.199219 C 202.429688 98.363281 204.785156 113.101562 205.214844 131 Z M 205.214844 131 " fill-opacity="1" fill-rule="nonzero"/><path fill="#000000" d="M 192.738281 75.644531 C 193.488281 77.464844 194.234375 79.339844 194.878906 81.214844 C 193.488281 81.429688 192.09375 81.699219 190.753906 81.804688 C 177.582031 82.929688 163.445312 86.09375 163.445312 86.09375 C 162.480469 86.359375 162 86.46875 162 86.46875 L 159.75 82.878906 L 158.894531 81 C 159.589844 80.839844 160.285156 80.734375 160.929688 80.625 C 171.371094 78.644531 180.6875 77.25 188.507812 76.230469 C 189.203125 76.125 189.84375 76.070312 190.488281 75.964844 C 191.289062 75.804688 192.039062 75.695312 192.738281 75.644531 Z M 192.738281 75.644531 " fill-opacity="1" fill-rule="nonzero"/><path fill="#000000" d="M 284.308594 82.824219 C 284.414062 83.089844 284.519531 83.359375 284.574219 83.628906 C 283.023438 83.253906 281.46875 82.929688 279.917969 82.609375 C 258.550781 78.269531 237.183594 77.785156 218.601562 78.859375 C 217.476562 78.910156 216.40625 79.019531 215.335938 79.074219 C 214.425781 79.125 213.566406 79.179688 212.65625 79.285156 C 212.121094 79.339844 211.585938 79.394531 211.050781 79.394531 C 210.78125 78.75 210.515625 78.054688 210.195312 77.410156 C 209.710938 76.339844 209.285156 75.265625 208.75 74.25 C 208.695312 74.195312 208.695312 74.089844 208.640625 74.035156 C 209.335938 73.980469 210.035156 73.929688 210.621094 73.875 C 210.675781 73.875 210.730469 73.875 210.78125 73.875 C 211.585938 73.820312 212.335938 73.765625 212.980469 73.714844 C 215.175781 73.605469 216.296875 73.550781 216.296875 73.550781 C 242.054688 73.070312 262.832031 75.589844 278.203125 78.589844 C 279.003906 78.75 279.753906 78.910156 280.503906 79.074219 C 281.363281 79.234375 282.164062 79.449219 283.023438 79.609375 C 283.074219 79.714844 283.074219 79.769531 283.128906 79.875 C 283.558594 80.839844 283.933594 81.804688 284.308594 82.824219 Z M 284.308594 82.824219 " fill-opacity="1" fill-rule="nonzero"/><path fill="#000000" d="M 310.492188 91.773438 C 309.902344 91.558594 309.316406 91.289062 308.726562 91.078125 C 306.851562 90.328125 304.976562 89.628906 303.050781 88.988281 C 301.441406 88.398438 299.835938 87.859375 298.175781 87.378906 C 298.070312 87.109375 298.015625 86.84375 297.910156 86.574219 C 297.535156 85.609375 297.210938 84.59375 296.839844 83.628906 C 296.785156 83.464844 296.675781 83.253906 296.625 83.089844 C 297.535156 83.359375 298.445312 83.628906 299.300781 83.894531 C 300.105469 84.164062 300.855469 84.378906 301.605469 84.644531 C 303.585938 85.289062 305.191406 85.878906 306.421875 86.308594 C 308.511719 87.058594 309.527344 87.539062 309.527344 87.539062 L 309.636719 88.074219 Z M 310.492188 91.773438 " fill-opacity="1" fill-rule="nonzero"/><path fill="#000000" d="M 295.179688 66.800781 C 295.179688 66.800781 313.492188 93.808594 312.101562 139.359375 C 310.707031 184.914062 292.285156 200.667969 288.429688 201.792969 C 288.429688 201.792969 300.640625 183.574219 306.046875 151.792969 C 311.457031 120.015625 300.855469 74.355469 290.25 64.335938 Z M 295.179688 66.800781 " fill-opacity="1" fill-rule="nonzero"/><path fill="#000000" d="M 246.609375 43.113281 C 246.609375 43.113281 278.363281 56.726562 286.34375 118.246094 C 294.320312 179.765625 261.386719 220.816406 239.378906 224.945312 C 239.378906 224.945312 273.703125 223.335938 288.378906 156.132812 C 303.050781 88.933594 259.140625 39.253906 246.609375 43.113281 Z M 246.609375 43.113281 " fill-opacity="1" fill-rule="nonzero"/><path fill="#000000" d="M 132.066406 55.011719 L 127.351562 103.832031 L 128.636719 52.707031 Z M 132.066406 55.011719 " fill-opacity="1" fill-rule="nonzero"/><path fill="#000000" d="M 100.738281 57.691406 L 96.078125 106.5625 L 97.363281 55.386719 Z M 100.738281 57.691406 " fill-opacity="1" fill-rule="nonzero"/><path fill="#000000" d="M 139.828125 198.257812 L 139.828125 170.121094 L 136.992188 202.328125 Z M 139.828125 198.257812 " fill-opacity="1" fill-rule="nonzero"/><path fill="#000000" d="M 80.441406 167.28125 L 80.601562 132.285156 L 77.496094 167.601562 Z M 80.441406 167.28125 " fill-opacity="1" fill-rule="nonzero"/><path fill="#000000" d="M 108.289062 211.117188 L 108.289062 182.929688 L 105.449219 215.136719 Z M 108.289062 211.117188 " fill-opacity="1" fill-rule="nonzero"/><path fill="#000000" d="M 157.019531 107.851562 L 154.875 139.359375 L 154.875 100.292969 Z M 157.019531 107.851562 " fill-opacity="1" fill-rule="nonzero"/><path fill="#000000" d="M 112.089844 97.988281 C 112.089844 97.988281 106.84375 124.730469 108.449219 154.207031 C 108.449219 154.207031 112.089844 132.285156 112.089844 97.988281 Z M 112.089844 97.988281 " fill-opacity="1" fill-rule="nonzero"/><path fill="#000000" d="M 144.917969 53.5625 C 144.273438 53.722656 143.953125 53.832031 143.953125 53.832031 L 144.808594 56.992188 C 144.863281 56.992188 145.71875 56.726562 147.21875 56.402344 C 150.914062 55.546875 158.570312 53.832031 168.960938 52.277344 C 163.980469 50.347656 147.648438 52.867188 144.917969 53.5625 Z M 144.917969 53.5625 " fill-opacity="1" fill-rule="nonzero"/><path fill="#000000" d="M 261.171875 50.457031 C 260.425781 50.292969 259.621094 50.132812 258.871094 49.972656 C 257.800781 49.757812 256.730469 49.492188 255.65625 49.332031 C 220.851562 44.132812 205.589844 48.953125 205.589844 48.953125 C 222.296875 48.527344 240.984375 49.492188 259.675781 53.457031 C 259.996094 53.511719 260.261719 53.5625 260.585938 53.671875 L 260.90625 52.0625 L 261.226562 50.5625 L 261.226562 50.507812 C 261.226562 50.507812 261.171875 50.507812 261.171875 50.457031 Z M 261.171875 50.457031 " fill-opacity="1" fill-rule="nonzero"/><path fill="#000000" d="M 198.199219 87.164062 C 198.414062 88.128906 198.628906 89.039062 198.839844 90.058594 C 198.089844 90.058594 197.34375 90.113281 196.644531 90.113281 C 196.003906 90.113281 195.359375 90.164062 194.71875 90.164062 C 193.96875 90.164062 193.21875 90.21875 192.46875 90.21875 C 185.5625 90.433594 179.457031 90.808594 174.476562 91.183594 C 174.476562 91.183594 180.632812 89.253906 191.878906 87.859375 C 192.628906 87.753906 193.433594 87.648438 194.234375 87.59375 C 194.773438 87.539062 195.359375 87.484375 195.949219 87.433594 C 196.699219 87.324219 197.449219 87.273438 198.199219 87.164062 Z M 198.199219 87.164062 " fill-opacity="1" fill-rule="nonzero"/><path fill="#000000" d="M 261.226562 88.183594 C 252.605469 87.324219 243.554688 87.003906 234.503906 87.109375 C 230.167969 87.164062 225.777344 87.273438 221.492188 87.484375 C 221.171875 87.484375 220.902344 87.484375 220.582031 87.539062 C 219.832031 87.59375 219.082031 87.59375 218.332031 87.648438 C 218.011719 87.648438 217.691406 87.699219 217.421875 87.699219 C 216.78125 87.753906 216.136719 87.753906 215.496094 87.808594 C 215.175781 87.808594 214.90625 87.859375 214.585938 87.859375 C 214.425781 87.859375 214.265625 87.859375 214.101562 87.914062 C 213.78125 86.949219 213.460938 86.039062 213.140625 85.128906 C 213.085938 84.914062 212.980469 84.699219 212.925781 84.484375 C 213.085938 84.484375 213.246094 84.429688 213.40625 84.429688 C 213.726562 84.378906 214.050781 84.378906 214.371094 84.324219 C 214.960938 84.269531 215.550781 84.21875 216.136719 84.164062 C 216.460938 84.164062 216.835938 84.109375 217.15625 84.109375 C 217.90625 84.054688 218.65625 84.003906 219.40625 83.949219 C 219.726562 83.949219 220.046875 83.894531 220.367188 83.894531 C 252.175781 83.039062 261.226562 88.183594 261.226562 88.183594 Z M 261.226562 88.183594 " fill-opacity="1" fill-rule="nonzero"/><path fill="#000000" d="M 228.667969 187.804688 C 224.0625 187.804688 219.40625 187.699219 214.640625 187.539062 L 214.746094 184.269531 C 235.363281 184.964844 254.371094 184.160156 271.1875 181.804688 C 271.1875 181.804688 263.851562 187.804688 228.667969 187.804688 Z M 228.667969 187.804688 " fill-opacity="1" fill-rule="nonzero"/><path fill="#000000" d="M 159.75 182.285156 C 158.945312 182.234375 160.339844 179.070312 160.339844 179.070312 C 160.445312 179.070312 169.441406 180.679688 183.367188 182.125 C 183.367188 182.125 179.992188 183.734375 159.75 182.285156 Z M 159.75 182.285156 " fill-opacity="1" fill-rule="nonzero"/><path fill="#000000" d="M 290.25 131.910156 L 249.605469 131.910156 C 249.605469 131.910156 256.460938 127.839844 290.25 128.644531 C 291.054688 128.644531 290.25 131.910156 290.25 131.910156 Z M 290.25 131.910156 " fill-opacity="1" fill-rule="nonzero"/><path fill="#000000" d="M 166.820312 145.898438 L 190.753906 145.898438 C 190.753906 145.898438 186.6875 149.972656 166.765625 149.167969 C 166.335938 149.167969 166.820312 145.898438 166.820312 145.898438 Z M 166.820312 145.898438 " fill-opacity="1" fill-rule="nonzero"/><path fill="#000000" d="M 223.582031 212.671875 C 216.996094 212.671875 209.820312 212.402344 202.160156 211.921875 L 202.375 208.652344 C 223.582031 210.046875 240.769531 209.511719 253.460938 206.992188 C 253.515625 206.992188 242.914062 213.367188 223.582031 212.671875 Z M 223.582031 212.671875 " fill-opacity="1" fill-rule="nonzero"/><path fill="#000000" d="M 181.117188 209.992188 C 169.65625 208.707031 162.265625 204.152344 162.265625 204.152344 C 162.320312 204.152344 170.136719 205.492188 181.4375 206.777344 Z M 181.117188 209.992188 " fill-opacity="1" fill-rule="nonzero"/><path fill="#000000" d="M 137.257812 31.484375 C 137.257812 31.484375 170.351562 23.605469 194.933594 62.996094 C 194.933594 62.996094 181.222656 25.054688 140.257812 28.484375 Z M 137.257812 31.484375 " fill-opacity="1" fill-rule="nonzero"/><path fill="#000000" d="M 209.925781 157.367188 C 209.925781 157.367188 204.195312 208.4375 169.710938 226.285156 C 169.710938 226.285156 209.925781 214.226562 209.925781 157.367188 Z M 209.925781 157.367188 " fill-opacity="1" fill-rule="nonzero"/><path fill="#000000" d="M 298.605469 141.398438 C 298.605469 141.398438 300.90625 73.550781 261.441406 42.578125 C 261.386719 42.578125 304.976562 67.871094 298.605469 141.398438 Z M 298.605469 141.398438 " fill-opacity="1" fill-rule="nonzero"/><path fill="#000000" d="M 283.773438 191.824219 C 283.773438 191.824219 267.652344 225.960938 236.433594 227.625 L 232.472656 232.070312 C 232.523438 232.015625 268.457031 235.019531 283.773438 191.824219 Z M 283.773438 191.824219 " fill-opacity="1" fill-rule="nonzero"/><path fill="#000000" d="M 204.355469 256.828125 C 203.875 257.527344 203.019531 257.953125 202.160156 257.953125 L 184.757812 257.953125 L 184.757812 252.597656 L 198.414062 252.597656 L 190.96875 231.214844 L 191.988281 230.890625 L 196.058594 229.5 L 204.730469 254.472656 C 205 255.222656 204.894531 256.132812 204.355469 256.828125 Z M 204.355469 256.828125 " fill-opacity="1" fill-rule="nonzero"/><path fill="#000000" d="M 301.390625 244.398438 L 283.984375 244.398438 C 282.808594 244.398438 281.738281 243.59375 281.414062 242.46875 L 273.542969 215.457031 L 278.683594 213.957031 L 285.96875 239.039062 L 297.75 239.039062 L 286.394531 202.597656 L 291.484375 200.988281 L 303.90625 240.96875 C 304.175781 241.769531 304.011719 242.683594 303.53125 243.324219 C 302.996094 244.023438 302.246094 244.398438 301.390625 244.398438 Z M 301.390625 244.398438 " fill-opacity="1" fill-rule="nonzero"/><path fill="#000000" d="M 283.074219 244.289062 C 282.863281 244.234375 261.171875 236.734375 230.8125 231.964844 L 231.613281 226.660156 C 262.457031 231.480469 284.574219 239.144531 284.789062 239.199219 Z M 283.074219 244.289062 " fill-opacity="1" fill-rule="nonzero"/><g clip-path="url(#9f3be05633)"><path fill="#000000" d="M 186.632812 257.257812 C 186.148438 257.742188 185.453125 258.007812 184.8125 258.007812 C 184.542969 258.007812 184.222656 257.953125 183.953125 257.847656 C 183.527344 257.6875 139.613281 242.628906 106.84375 246.753906 C 105.933594 246.863281 105.023438 246.488281 104.433594 245.789062 C 103.84375 245.039062 103.683594 244.074219 104.003906 243.21875 L 111.234375 223.496094 L 113.695312 224.40625 L 116.214844 225.320312 L 110.429688 240.96875 C 137.417969 238.878906 168.90625 247.503906 180.796875 251.203125 L 174.90625 230.945312 L 174.367188 229.015625 L 179.511719 227.515625 L 180.527344 230.945312 L 186.847656 252.597656 L 187.382812 254.523438 C 187.433594 254.632812 187.433594 254.738281 187.433594 254.847656 C 187.542969 255.757812 187.273438 256.613281 186.632812 257.257812 Z M 186.632812 257.257812 " fill-opacity="1" fill-rule="nonzero"/></g><path fill="#000000" d="M 186.363281 240.324219 L 190.808594 253.882812 L 186.738281 253.882812 Z M 186.363281 240.324219 " fill-opacity="1" fill-rule="nonzero"/><path fill="#000000" d="M 294.320312 240.484375 L 291.375 228.425781 L 297.75 239.089844 C 297.75 239.089844 298.175781 241.878906 294.320312 240.484375 Z M 294.320312 240.484375 " fill-opacity="1" fill-rule="nonzero"/><g fill="#545454" fill-opacity="1"><g transform="translate(41.240567, 337.750322)"><g><path d="M 46.5 -57.609375 C 48.46875 -57.609375 49.816406 -57.382812 50.546875 -56.9375 C 51.273438 -56.488281 51.640625 -55.710938 51.640625 -54.609375 L 51.640625 -38.21875 C 51.640625 -37.132812 51.15625 -36.359375 50.1875 -35.890625 C 49.21875 -35.429688 47.609375 -35.203125 45.359375 -35.203125 C 43.867188 -35.203125 42.71875 -35.304688 41.90625 -35.515625 C 41.09375 -35.722656 40.523438 -36.03125 40.203125 -36.4375 C 39.890625 -36.851562 39.734375 -37.445312 39.734375 -38.21875 C 39.734375 -40.945312 38.90625 -43.054688 37.25 -44.546875 C 35.601562 -46.035156 33.097656 -46.78125 29.734375 -46.78125 C 25.316406 -46.78125 21.960938 -45.191406 19.671875 -42.015625 C 17.390625 -38.847656 16.25 -34.273438 16.25 -28.296875 C 16.25 -22.390625 17.460938 -17.820312 19.890625 -14.59375 C 22.316406 -11.375 25.753906 -9.765625 30.203125 -9.765625 C 33.734375 -9.765625 37.070312 -10.242188 40.21875 -11.203125 L 40.21875 -19.15625 L 31.015625 -19.15625 C 30.253906 -19.15625 29.664062 -19.28125 29.25 -19.53125 C 28.84375 -19.789062 28.535156 -20.269531 28.328125 -20.96875 C 28.117188 -21.664062 28.015625 -22.679688 28.015625 -24.015625 C 28.015625 -25.347656 28.117188 -26.363281 28.328125 -27.0625 C 28.535156 -27.757812 28.84375 -28.242188 29.25 -28.515625 C 29.664062 -28.785156 30.253906 -28.921875 31.015625 -28.921875 L 53.59375 -28.921875 C 54.363281 -28.921875 54.953125 -28.785156 55.359375 -28.515625 C 55.773438 -28.242188 56.085938 -27.757812 56.296875 -27.0625 C 56.503906 -26.363281 56.609375 -25.347656 56.609375 -24.015625 C 56.609375 -22.679688 56.503906 -21.664062 56.296875 -20.96875 C 56.085938 -20.269531 55.773438 -19.789062 55.359375 -19.53125 C 54.953125 -19.28125 54.363281 -19.15625 53.59375 -19.15625 L 52.125 -19.15625 L 52.125 -6.8125 C 52.125 -6.050781 51.972656 -5.382812 51.671875 -4.8125 C 51.367188 -4.238281 50.945312 -3.8125 50.40625 -3.53125 C 47.457031 -2 44.21875 -0.851562 40.6875 -0.09375 C 37.164062 0.664062 33.515625 1.046875 29.734375 1.046875 C 24.523438 1.046875 19.929688 -0.140625 15.953125 -2.515625 C 11.984375 -4.898438 8.910156 -8.304688 6.734375 -12.734375 C 4.566406 -17.171875 3.484375 -22.359375 3.484375 -28.296875 C 3.484375 -34.203125 4.546875 -39.367188 6.671875 -43.796875 C 8.796875 -48.234375 11.738281 -51.644531 15.5 -54.03125 C 19.269531 -56.414062 23.535156 -57.609375 28.296875 -57.609375 C 33.890625 -57.609375 38.019531 -55.734375 40.6875 -51.984375 L 40.6875 -54.609375 C 40.6875 -55.679688 41.144531 -56.445312 42.0625 -56.90625 C 42.988281 -57.375 44.46875 -57.609375 46.5 -57.609375 Z M 46.5 -57.609375 "/></g></g></g><g fill="#545454" fill-opacity="1"><g transform="translate(99.743198, 337.750322)"><g><path d="M 31.15625 -56.5625 C 37.800781 -56.5625 42.71875 -55.203125 45.90625 -52.484375 C 49.09375 -49.765625 50.6875 -45.992188 50.6875 -41.171875 C 50.6875 -38.566406 50.039062 -36.332031 48.75 -34.46875 C 47.46875 -32.613281 45.671875 -31.128906 43.359375 -30.015625 C 50.628906 -28.046875 54.265625 -23.503906 54.265625 -16.390625 C 54.265625 -11.023438 52.5 -6.953125 48.96875 -4.171875 C 45.445312 -1.390625 40.398438 0 33.828125 0 L 6.34375 0 C 5.570312 0 4.976562 -0.125 4.5625 -0.375 C 4.15625 -0.632812 3.847656 -1.113281 3.640625 -1.8125 C 3.429688 -2.507812 3.328125 -3.523438 3.328125 -4.859375 C 3.328125 -6.191406 3.429688 -7.207031 3.640625 -7.90625 C 3.847656 -8.601562 4.15625 -9.085938 4.5625 -9.359375 C 4.976562 -9.628906 5.570312 -9.765625 6.34375 -9.765625 L 11.4375 -9.765625 L 11.4375 -46.78125 L 6.34375 -46.78125 C 5.570312 -46.78125 4.976562 -46.90625 4.5625 -47.15625 C 4.15625 -47.414062 3.847656 -47.894531 3.640625 -48.59375 C 3.429688 -49.289062 3.328125 -50.304688 3.328125 -51.640625 C 3.328125 -52.984375 3.429688 -54.003906 3.640625 -54.703125 C 3.847656 -55.398438 4.15625 -55.882812 4.5625 -56.15625 C 4.976562 -56.425781 5.570312 -56.5625 6.34375 -56.5625 Z M 23.34375 -34.015625 L 30.109375 -34.015625 C 32.972656 -34.015625 35.101562 -34.519531 36.5 -35.53125 C 37.894531 -36.550781 38.59375 -38.113281 38.59375 -40.21875 C 38.59375 -42.34375 37.914062 -43.890625 36.5625 -44.859375 C 35.21875 -45.828125 33.066406 -46.3125 30.109375 -46.3125 L 23.34375 -46.3125 Z M 23.34375 -10.25 L 32.5 -10.25 C 38.65625 -10.25 41.734375 -12.453125 41.734375 -16.859375 C 41.734375 -19.210938 40.976562 -20.953125 39.46875 -22.078125 C 37.96875 -23.210938 35.644531 -23.78125 32.5 -23.78125 L 23.34375 -23.78125 Z M 23.34375 -10.25 "/></g></g></g><g fill="#545454" fill-opacity="1"><g transform="translate(158.245829, 337.750322)"><g><path d="M 44.171875 -45.078125 C 46.867188 -45.078125 49.410156 -44.1875 51.796875 -42.40625 C 53.191406 -41.382812 53.890625 -40.050781 53.890625 -38.40625 C 53.890625 -37.351562 53.601562 -36.113281 53.03125 -34.6875 C 52.457031 -33.257812 51.8125 -32.175781 51.09375 -31.4375 C 50.382812 -30.707031 49.632812 -30.34375 48.84375 -30.34375 C 48.394531 -30.34375 47.914062 -30.472656 47.40625 -30.734375 C 45.625 -31.710938 43.78125 -32.203125 41.875 -32.203125 C 39.4375 -32.203125 37.148438 -31.425781 35.015625 -29.875 C 32.890625 -28.320312 31.179688 -26.175781 29.890625 -23.4375 C 28.609375 -20.707031 27.96875 -17.660156 27.96875 -14.296875 L 27.96875 -9.765625 L 41.640625 -9.765625 C 42.398438 -9.765625 42.988281 -9.628906 43.40625 -9.359375 C 43.820312 -9.085938 44.128906 -8.601562 44.328125 -7.90625 C 44.535156 -7.207031 44.640625 -6.191406 44.640625 -4.859375 C 44.640625 -3.523438 44.535156 -2.507812 44.328125 -1.8125 C 44.128906 -1.113281 43.820312 -0.632812 43.40625 -0.375 C 42.988281 -0.125 42.398438 0 41.640625 0 L 9.046875 0 C 8.285156 0 7.695312 -0.125 7.28125 -0.375 C 6.875 -0.632812 6.566406 -1.113281 6.359375 -1.8125 C 6.148438 -2.507812 6.046875 -3.523438 6.046875 -4.859375 C 6.046875 -6.191406 6.148438 -7.207031 6.359375 -7.90625 C 6.566406 -8.601562 6.875 -9.085938 7.28125 -9.359375 C 7.695312 -9.628906 8.285156 -9.765625 9.046875 -9.765625 L 16.0625 -9.765625 L 16.0625 -34.25 L 10.484375 -34.25 C 9.722656 -34.25 9.132812 -34.375 8.71875 -34.625 C 8.300781 -34.882812 7.988281 -35.363281 7.78125 -36.0625 C 7.582031 -36.757812 7.484375 -37.773438 7.484375 -39.109375 C 7.484375 -40.453125 7.582031 -41.472656 7.78125 -42.171875 C 7.988281 -42.867188 8.300781 -43.351562 8.71875 -43.625 C 9.132812 -43.894531 9.722656 -44.03125 10.484375 -44.03125 L 23.53125 -44.03125 C 24.613281 -44.03125 25.382812 -43.796875 25.84375 -43.328125 C 26.300781 -42.867188 26.53125 -42.097656 26.53125 -41.015625 L 26.53125 -30.6875 C 28.914062 -35.289062 31.65625 -38.835938 34.75 -41.328125 C 37.851562 -43.828125 40.992188 -45.078125 44.171875 -45.078125 Z M 44.171875 -45.078125 "/></g></g></g><g fill="#545454" fill-opacity="1"><g transform="translate(216.74846, 337.750322)"><g><path d="M 29.921875 -45.078125 C 34.742188 -45.078125 38.851562 -44.035156 42.25 -41.953125 C 45.65625 -39.867188 48.222656 -36.976562 49.953125 -33.28125 C 51.679688 -29.582031 52.546875 -25.347656 52.546875 -20.578125 C 52.546875 -19.503906 52.316406 -18.742188 51.859375 -18.296875 C 51.398438 -17.847656 50.628906 -17.625 49.546875 -17.625 L 18.96875 -17.625 C 19.570312 -15.082031 20.863281 -13.132812 22.84375 -11.78125 C 24.832031 -10.4375 27.347656 -9.765625 30.390625 -9.765625 C 35.316406 -9.765625 40.65625 -10.640625 46.40625 -12.390625 C 46.789062 -12.515625 47.171875 -12.578125 47.546875 -12.578125 C 48.242188 -12.578125 48.847656 -12.257812 49.359375 -11.625 C 49.867188 -10.988281 50.332031 -9.910156 50.75 -8.390625 C 51.0625 -7.210938 51.21875 -6.210938 51.21875 -5.390625 C 51.21875 -4.554688 51.035156 -3.910156 50.671875 -3.453125 C 50.304688 -2.992188 49.710938 -2.617188 48.890625 -2.328125 C 45.710938 -1.285156 42.46875 -0.460938 39.15625 0.140625 C 35.851562 0.742188 32.613281 1.046875 29.4375 1.046875 C 24.613281 1.046875 20.453125 0.0625 16.953125 -1.90625 C 13.460938 -3.875 10.800781 -6.597656 8.96875 -10.078125 C 7.144531 -13.554688 6.234375 -17.535156 6.234375 -22.015625 C 6.234375 -26.460938 7.1875 -30.429688 9.09375 -33.921875 C 11 -37.421875 13.75 -40.15625 17.34375 -42.125 C 20.9375 -44.09375 25.128906 -45.078125 29.921875 -45.078125 Z M 29.921875 -34.25 C 24.109375 -34.25 20.519531 -31.804688 19.15625 -26.921875 L 40.125 -26.921875 C 39.582031 -29.234375 38.425781 -31.03125 36.65625 -32.3125 C 34.894531 -33.601562 32.648438 -34.25 29.921875 -34.25 Z M 29.921875 -34.25 "/></g></g></g><g fill="#545454" fill-opacity="1"><g transform="translate(275.251091, 337.750322)"><g><path d="M 56.453125 -44.03125 C 57.222656 -44.03125 57.8125 -43.894531 58.21875 -43.625 C 58.632812 -43.351562 58.945312 -42.867188 59.15625 -42.171875 C 59.363281 -41.472656 59.46875 -40.453125 59.46875 -39.109375 C 59.46875 -37.773438 59.363281 -36.757812 59.15625 -36.0625 C 58.945312 -35.363281 58.632812 -34.882812 58.21875 -34.625 C 57.8125 -34.375 57.222656 -34.25 56.453125 -34.25 L 54.5 -34.25 L 47.546875 -2.046875 C 47.296875 -0.898438 46.75 -0.0976562 45.90625 0.359375 C 45.0625 0.816406 43.6875 1.046875 41.78125 1.046875 C 39.9375 1.046875 38.570312 0.804688 37.6875 0.328125 C 36.800781 -0.140625 36.148438 -0.929688 35.734375 -2.046875 L 29.0625 -18.96875 L 22.296875 -2.046875 C 21.847656 -0.929688 21.179688 -0.140625 20.296875 0.328125 C 19.410156 0.804688 18.03125 1.046875 16.15625 1.046875 C 14.25 1.046875 12.890625 0.816406 12.078125 0.359375 C 11.265625 -0.0976562 10.734375 -0.898438 10.484375 -2.046875 L 3.671875 -34.25 L 2.046875 -34.25 C 1.285156 -34.25 0.695312 -34.375 0.28125 -34.625 C -0.125 -34.882812 -0.429688 -35.363281 -0.640625 -36.0625 C -0.847656 -36.757812 -0.953125 -37.773438 -0.953125 -39.109375 C -0.953125 -40.453125 -0.847656 -41.472656 -0.640625 -42.171875 C -0.429688 -42.867188 -0.125 -43.351562 0.28125 -43.625 C 0.695312 -43.894531 1.285156 -44.03125 2.046875 -44.03125 L 18.4375 -44.03125 C 19.195312 -44.03125 19.785156 -43.894531 20.203125 -43.625 C 20.617188 -43.351562 20.925781 -42.867188 21.125 -42.171875 C 21.332031 -41.472656 21.4375 -40.453125 21.4375 -39.109375 C 21.4375 -37.773438 21.332031 -36.757812 21.125 -36.0625 C 20.925781 -35.363281 20.617188 -34.882812 20.203125 -34.625 C 19.785156 -34.375 19.195312 -34.25 18.4375 -34.25 L 14.390625 -34.25 L 17.96875 -15.765625 L 24.53125 -31.921875 C 24.882812 -32.804688 25.410156 -33.476562 26.109375 -33.9375 C 26.804688 -34.40625 27.804688 -34.640625 29.109375 -34.640625 C 30.472656 -34.640625 31.492188 -34.445312 32.171875 -34.0625 C 32.859375 -33.6875 33.378906 -33.082031 33.734375 -32.25 L 40.265625 -15.765625 L 43.984375 -34.25 L 40.546875 -34.25 C 39.785156 -34.25 39.195312 -34.375 38.78125 -34.625 C 38.375 -34.882812 38.066406 -35.363281 37.859375 -36.0625 C 37.648438 -36.757812 37.546875 -37.773438 37.546875 -39.109375 C 37.546875 -40.453125 37.648438 -41.472656 37.859375 -42.171875 C 38.066406 -42.867188 38.375 -43.351562 38.78125 -43.625 C 39.195312 -43.894531 39.785156 -44.03125 40.546875 -44.03125 Z M 56.453125 -44.03125 "/></g></g></g></svg>